<?xml version="1.0" encoding="UTF-8" standalone="no"?>
<!-- Created with Inkscape (http://www.inkscape.org/) -->

<svg
   width="72"
   height="72"
   viewBox="0 0 19.049999 19.050001"
   version="1.1"
   id="svg5"
   inkscape:version="1.1.1 (c3084ef, 2021-09-22)"
   sodipodi:docname="check_green.svg"
   xmlns:inkscape="http://www.inkscape.org/namespaces/inkscape"
   xmlns:sodipodi="http://sodipodi.sourceforge.net/DTD/sodipodi-0.dtd"
   xmlns="http://www.w3.org/2000/svg"
   xmlns:svg="http://www.w3.org/2000/svg">
  <sodipodi:namedview
     id="namedview7"
     pagecolor="#ffffff"
     bordercolor="#666666"
     borderopacity="1.0"
     inkscape:pageshadow="2"
     inkscape:pageopacity="0.0"
     inkscape:pagecheckerboard="0"
     inkscape:document-units="px"
     showgrid="false"
     units="px"
     width="72px"
     inkscape:zoom="7.6571429"
     inkscape:cx="18.479478"
     inkscape:cy="35.522388"
     inkscape:window-width="1312"
     inkscape:window-height="762"
     inkscape:window-x="0"
     inkscape:window-y="25"
     inkscape:window-maximized="0"
     inkscape:current-layer="g4564" />
  <defs
     id="defs2" />
  <g
     inkscape:groupmode="layer"
     id="layer2"
     inkscape:label="Layer 2">
    <g
       id="g4564"
       transform="translate(0,0.52916666)">
      <circle
         style="opacity:0.87;fill:#ffffff;fill-opacity:1;stroke-width:0.264583"
         id="circle4604"
         cx="9.0185394"
         cy="8.9148788"
         r="7.526073" />
      <g
         id="g2838"
         style="fill:#1ab900;fill-opacity:0.4"
         transform="translate(-0.52916667)">
        <path
           style="fill:#1ab900;fill-opacity:0.4;stroke-width:0.131067"
           d="M 8.7469271,11.727138 C 8.6027537,11.666439 7.7819482,10.90799 6.9229148,10.041696 5.6123452,8.7200509 5.3610361,8.4021919 5.3610361,8.0662124 c 0,-0.5569001 0.3733694,-0.9280555 0.9335914,-0.9280555 0.3981781,0 0.6103254,0.1512682 1.6711691,1.1916005 L 9.1808907,9.5213583 13.427772,6.119706 c 2.335785,-1.8709086 4.372292,-3.4687696 4.525572,-3.5508024 0.696527,-0.37277 1.384955,0.085751 1.318897,0.8784372 -0.03841,0.4609509 -0.229323,0.6312917 -4.889443,4.3626283 -2.667209,2.1356212 -4.9674305,3.9154789 -5.1116039,3.9552399 -0.1441734,0.03976 -0.3800935,0.02263 -0.524267,-0.03807 z"
           id="path4601" />
        <path
           style="fill:#1ab900;fill-opacity:0.4;stroke-width:0.131067"
           d="M 7.0219806,10.12664 C 5.5410397,8.6625513 5.404725,8.4875065 5.404725,8.0498862 c 0,-0.5724263 0.3199743,-0.9117293 0.8597915,-0.9117293 0.3043591,0 0.6209617,0.2395442 1.583537,1.1981173 0.727029,0.724006 1.2725848,1.1686521 1.3786635,1.1236557 0.096549,-0.040954 2.092395,-1.6137222 4.435214,-3.4950408 2.342818,-1.8813187 4.397508,-3.4562871 4.565979,-3.49993 0.351517,-0.091062 0.978071,0.3075216 1.048731,0.6671516 0.118535,0.603296 -0.197332,0.9035961 -4.956941,4.712638 -4.063115,3.2516483 -4.9165823,3.8807453 -5.264835,3.8807453 -0.3556964,0 -0.6488329,-0.230551 -2.0328844,-1.598854 z"
           id="path4598" />
        <path
           style="fill:#1ab900;fill-opacity:0.4;stroke-width:0.131067"
           d="M 7.0160751,10.114143 C 5.6251501,8.7232184 5.404725,8.445314 5.404725,8.0826086 c 0,-0.5186965 0.3977094,-0.9444517 0.8822379,-0.9444517 0.276337,0 0.6351988,0.2760751 1.573634,1.2106085 1.1136331,1.1090028 1.2382113,1.1965269 1.4843211,1.0428287 0.1477619,-0.092279 2.183224,-1.6986937 4.523248,-3.5698104 2.340024,-1.8711168 4.36357,-3.4020306 4.49677,-3.4020306 0.133199,0 0.397584,0.1222409 0.587522,0.2716464 0.378044,0.2973696 0.459809,0.8393091 0.181509,1.2030555 -0.09011,0.1177746 -2.309189,1.927939 -4.931291,4.0225873 -3.924761,3.1352687 -4.8388508,3.8084517 -5.1713545,3.8084517 -0.3418711,0 -0.6513475,-0.247452 -2.0152464,-1.611351 z"
           id="path4595" />
        <path
           style="fill:#1ab900;fill-opacity:0.4;stroke-width:0.131067"
           d="M 7.0160751,10.114143 C 5.6251501,8.7232184 5.404725,8.445314 5.404725,8.0826086 c 0,-0.51406 0.3965973,-0.9444517 0.8702933,-0.9444517 0.2603445,0 0.6579094,0.3056716 1.6055677,1.2344561 L 9.1401274,9.6070693 13.46533,6.1353585 c 2.378862,-1.9094407 4.457908,-3.5251269 4.620103,-3.5904139 0.67144,-0.2702684 1.392571,0.4455436 1.137512,1.1291204 -0.07444,0.1994995 -1.999786,1.8271607 -4.954966,4.188856 -3.979649,3.180422 -4.9045111,3.862573 -5.2368878,3.862573 -0.3415764,0 -0.6515149,-0.247849 -2.0150161,-1.611351 z"
           id="path4592" />
        <path
           style="fill:#1ab900;fill-opacity:0.4;stroke-width:0.131067"
           d="M 7.0212149,10.109003 C 5.6776194,8.765408 5.404725,8.4266751 5.404725,8.1025195 c 0,-0.5228393 0.2392684,-0.8123975 0.7550329,-0.9137268 0.4030042,-0.079176 0.500328,-0.012278 1.7072986,1.1735471 L 9.146989,9.6198493 13.579307,6.0781527 c 4.158669,-3.3230335 4.461653,-3.5392301 4.907455,-3.501748 0.594536,0.049987 0.941482,0.5518791 0.741178,1.0721883 -0.07704,0.2001207 -2.028367,1.8482249 -4.976209,4.202943 -3.859445,3.0829 -4.9275126,3.873749 -5.2317482,3.873842 -0.3143501,9.5e-5 -0.6695158,-0.287122 -1.9987679,-1.616375 z"
           id="path4589" />
        <path
           style="fill:#1ab900;fill-opacity:0.4;stroke-width:0.131067"
           d="M 7.147672,10.121326 C 6.2552251,9.2390347 5.4929549,8.3893174 5.4537383,8.2330662 5.3084113,7.6540369 5.9333118,7.0401297 6.4909765,7.2140754 c 0.1594722,0.049742 0.8297098,0.6184927 1.489417,1.26389 L 9.1798609,9.6514153 13.615868,6.1011174 c 4.370821,-3.4981271 4.770188,-3.7612517 5.236345,-3.4499904 0.26005,0.1736402 0.461797,0.6906808 0.375542,0.9624467 -0.119499,0.3765069 -9.8234041,8.1119203 -10.1762249,8.1119203 -0.1838901,0 -0.8428456,-0.555228 -1.9038581,-1.604168 z"
           id="path4586" />
      </g>
      <path
         style="fill:#1ab900;fill-opacity:0.4;stroke-width:0.133226"
         d="M 7.2726408,17.375038 C 4.1842296,16.818758 1.5920581,14.56417 0.61969576,11.588511 0.32295083,10.680411 0.26717963,10.270234 0.26468003,8.9774926 0.26208003,7.6464883 0.31011303,7.3030242 0.62795366,6.3782121 1.5515898,3.6907815 3.4928698,1.7383866 6.088055,0.88686487 6.9922051,0.5901866 7.4066112,0.53334841 8.693711,0.5294253 c 1.365757,-0.004162 1.652294,0.0382945 2.661767,0.39437087 0.622187,0.21946493 1.474033,0.61924693 1.892991,0.88840103 0.857535,0.55091 1.068355,0.9869157 0.751814,1.5548501 -0.290163,0.520597 -0.910711,0.5252486 -1.707689,0.0128 -2.6373314,-1.6958534 -6.0294503,-1.31833 -8.2687723,0.9202641 -2.6454514,2.6445991 -2.6445479,6.6985186 0.00208,9.3569166 2.6422799,2.654037 6.6536703,2.649833 9.3376943,-0.0094 1.238515,-1.227245 1.984523,-2.926251 1.984523,-4.5196762 0,-0.3540056 0.09151,-0.5897769 0.308026,-0.7936014 0.408135,-0.3842145 0.825768,-0.3662327 1.244735,0.053592 0.325993,0.3266583 0.338318,0.3906559 0.250437,1.300275 -0.330499,3.4207916 -2.656581,6.3563856 -5.833468,7.3620226 -1.192873,0.377606 -2.9638373,0.519972 -4.0452134,0.325201 z"
         id="path4583" />
    </g>
  </g>
  <g
     inkscape:label="Layer 1"
     inkscape:groupmode="layer"
     id="layer1">
    <g
       id="g774" />
  </g>
</svg>
