    <svg xmlns="http://www.w3.org/2000/svg" xmlns:xlink="http://www.w3.org/1999/xlink" style="margin:auto;background:#fff;display:block;" width="200px" height="200px" viewBox="0 0 100 100" preserveAspectRatio="xMidYMid">
<g transform="translate(50 50)"> <g transform="translate(-17 -17) scale(0.5)"> <g>
<animateTransform attributeName="transform" type="rotate" values="0;45" keyTimes="0;1" dur="0.22075055187637968s" begin="0s" repeatCount="indefinite"></animateTransform><path d="M36.520542164650294 -10.500000000000002 L44.520542164650294 -10.500000000000002 L44.520542164650294 10.500000000000002 L36.520542164650294 10.500000000000002 A38 38 0 0 1 33.24854421969221 18.39930181477471 L33.24854421969221 18.39930181477471 L38.90539846918459 24.05615606426709 L24.056156064267093 38.90539846918459 L18.399301814774713 33.24854421969221 A38 38 0 0 1 10.500000000000002 36.520542164650294 L10.500000000000002 36.520542164650294 L10.500000000000002 44.520542164650294 L-10.499999999999996 44.520542164650294 L-10.499999999999996 36.520542164650294 A38 38 0 0 1 -18.399301814774706 33.248544219692214 L-18.399301814774706 33.248544219692214 L-24.056156064267086 38.9053984691846 L-38.90539846918459 24.056156064267093 L-33.24854421969221 18.399301814774713 A38 38 0 0 1 -36.520542164650294 10.500000000000004 L-36.520542164650294 10.500000000000004 L-44.520542164650294 10.500000000000005 L-44.520542164650294 -10.499999999999993 L-36.520542164650294 -10.499999999999995 A38 38 0 0 1 -33.248544219692214 -18.399301814774706 L-33.248544219692214 -18.399301814774706 L-38.9053984691846 -24.056156064267086 L-24.056156064267082 -38.9053984691846 L-18.399301814774702 -33.248544219692214 A38 38 0 0 1 -10.500000000000021 -36.52054216465029 L-10.500000000000021 -36.52054216465029 L-10.500000000000023 -44.52054216465029 L10.500000000000007 -44.520542164650294 L10.500000000000009 -36.520542164650294 A38 38 0 0 1 18.399301814774688 -33.24854421969222 L18.399301814774688 -33.24854421969222 L24.056156064267068 -38.905398469184604 L38.90539846918459 -24.056156064267082 L33.248544219692214 -18.399301814774702 A38 38 0 0 1 36.52054216465029 -10.500000000000025 M0 -28A28 28 0 1 0 0 28 A28 28 0 1 0 0 -28" fill="#667984"></path></g></g> <g transform="translate(0 22) scale(0.4)"> <g>
<animateTransform attributeName="transform" type="rotate" values="45;0" keyTimes="0;1" dur="0.22075055187637968s" begin="-0.11037527593818984s" repeatCount="indefinite"></animateTransform><path d="M36.520542164650294 -10.500000000000002 L44.520542164650294 -10.500000000000002 L44.520542164650294 10.500000000000002 L36.520542164650294 10.500000000000002 A38 38 0 0 1 33.24854421969221 18.39930181477471 L33.24854421969221 18.39930181477471 L38.90539846918459 24.05615606426709 L24.056156064267093 38.90539846918459 L18.399301814774713 33.24854421969221 A38 38 0 0 1 10.500000000000002 36.520542164650294 L10.500000000000002 36.520542164650294 L10.500000000000002 44.520542164650294 L-10.499999999999996 44.520542164650294 L-10.499999999999996 36.520542164650294 A38 38 0 0 1 -18.399301814774706 33.248544219692214 L-18.399301814774706 33.248544219692214 L-24.056156064267086 38.9053984691846 L-38.90539846918459 24.056156064267093 L-33.24854421969221 18.399301814774713 A38 38 0 0 1 -36.520542164650294 10.500000000000004 L-36.520542164650294 10.500000000000004 L-44.520542164650294 10.500000000000005 L-44.520542164650294 -10.499999999999993 L-36.520542164650294 -10.499999999999995 A38 38 0 0 1 -33.248544219692214 -18.399301814774706 L-33.248544219692214 -18.399301814774706 L-38.9053984691846 -24.056156064267086 L-24.056156064267082 -38.9053984691846 L-18.399301814774702 -33.248544219692214 A38 38 0 0 1 -10.500000000000021 -36.52054216465029 L-10.500000000000021 -36.52054216465029 L-10.500000000000023 -44.52054216465029 L10.500000000000007 -44.520542164650294 L10.500000000000009 -36.520542164650294 A38 38 0 0 1 18.399301814774688 -33.24854421969222 L18.399301814774688 -33.24854421969222 L24.056156064267068 -38.905398469184604 L38.90539846918459 -24.056156064267082 L33.248544219692214 -18.399301814774702 A38 38 0 0 1 36.52054216465029 -10.500000000000025 M0 -28A28 28 0 1 0 0 28 A28 28 0 1 0 0 -28" fill="#667984"></path></g></g> <g transform="translate(28 4) scale(0.3)"> <g>
<animateTransform attributeName="transform" type="rotate" values="0;45" keyTimes="0;1" dur="0.22075055187637968s" begin="-0.11037527593818984s" repeatCount="indefinite"></animateTransform><path d="M36.520542164650294 -10.500000000000002 L44.520542164650294 -10.500000000000002 L44.520542164650294 10.500000000000002 L36.520542164650294 10.500000000000002 A38 38 0 0 1 33.24854421969221 18.39930181477471 L33.24854421969221 18.39930181477471 L38.90539846918459 24.05615606426709 L24.056156064267093 38.90539846918459 L18.399301814774713 33.24854421969221 A38 38 0 0 1 10.500000000000002 36.520542164650294 L10.500000000000002 36.520542164650294 L10.500000000000002 44.520542164650294 L-10.499999999999996 44.520542164650294 L-10.499999999999996 36.520542164650294 A38 38 0 0 1 -18.399301814774706 33.248544219692214 L-18.399301814774706 33.248544219692214 L-24.056156064267086 38.9053984691846 L-38.90539846918459 24.056156064267093 L-33.24854421969221 18.399301814774713 A38 38 0 0 1 -36.520542164650294 10.500000000000004 L-36.520542164650294 10.500000000000004 L-44.520542164650294 10.500000000000005 L-44.520542164650294 -10.499999999999993 L-36.520542164650294 -10.499999999999995 A38 38 0 0 1 -33.248544219692214 -18.399301814774706 L-33.248544219692214 -18.399301814774706 L-38.9053984691846 -24.056156064267086 L-24.056156064267082 -38.9053984691846 L-18.399301814774702 -33.248544219692214 A38 38 0 0 1 -10.500000000000021 -36.52054216465029 L-10.500000000000021 -36.52054216465029 L-10.500000000000023 -44.52054216465029 L10.500000000000007 -44.520542164650294 L10.500000000000009 -36.520542164650294 A38 38 0 0 1 18.399301814774688 -33.24854421969222 L18.399301814774688 -33.24854421969222 L24.056156064267068 -38.905398469184604 L38.90539846918459 -24.056156064267082 L33.248544219692214 -18.399301814774702 A38 38 0 0 1 36.52054216465029 -10.500000000000025 M0 -28A28 28 0 1 0 0 28 A28 28 0 1 0 0 -28" fill="#667984"></path></g></g></g>
</svg>
