<svg width="68" height="64" viewBox="0 0 68 64" fill="none" xmlns="http://www.w3.org/2000/svg">
<path d="M57.375 64H10.625C4.76638 64 0 59.2143 0 53.3319C0 51.5065 0.467766 49.7044 1.35309 48.1195L24.7224 5.45729C24.7265 5.44982 24.7306 5.44249 24.7347 5.43502C28.7936 -1.81034 39.2047 -1.81301 43.2654 5.43502C43.2695 5.44236 43.2736 5.44982 43.2777 5.45729L66.6472 48.1194C67.5322 49.7042 68 51.5063 68 53.3319C68 59.2143 63.2336 64 57.375 64ZM29.3707 8.04003L6.00233 50.7002C5.99821 50.7077 5.99409 50.7152 5.98998 50.7225C5.54678 51.5135 5.3125 52.4159 5.3125 53.3319C5.3125 56.2731 7.69569 58.666 10.625 58.666H57.375C60.3043 58.666 62.6875 56.2731 62.6875 53.3319C62.6875 52.4158 62.4532 51.5135 62.01 50.7225C62.0059 50.7152 62.0018 50.7077 61.9977 50.7002L38.6297 8.0407C36.5964 4.42849 31.4064 4.42435 29.3707 8.04003Z" fill="#FF1818"/>
<path d="M29.3707 8.03996L6.00233 50.7002C5.99821 50.7076 5.99409 50.7151 5.98998 50.7224C5.54678 51.5135 5.3125 52.4159 5.3125 53.3318C5.3125 56.273 7.69569 58.6659 10.625 58.6659H57.375C60.3043 58.6659 62.6875 56.273 62.6875 53.3318C62.6875 52.4157 62.4532 51.5135 62.01 50.7224C62.0059 50.7151 62.0018 50.7076 61.9977 50.7002L38.6297 8.04063C36.5964 4.42841 31.4064 4.42428 29.3707 8.03996Z" fill="white"/>
<path d="M33.9999 39.9968C32.5329 39.9968 31.3437 38.8028 31.3437 37.3298V21.3277C31.3437 19.8547 32.5329 18.6606 33.9999 18.6606C35.467 18.6606 36.6562 19.8547 36.6562 21.3277V37.3298C36.6562 38.8028 35.467 39.9968 33.9999 39.9968Z" fill="#FF1818"/>
<path d="M33.9999 50.6651C35.4669 50.6651 36.6562 49.471 36.6562 47.9981C36.6562 46.5251 35.4669 45.3311 33.9999 45.3311C32.5329 45.3311 31.3437 46.5251 31.3437 47.9981C31.3437 49.471 32.5329 50.6651 33.9999 50.6651Z" fill="#FF1818"/>
</svg>
