<svg width="25" height="28" viewBox="0 0 25 28" fill="none" xmlns="http://www.w3.org/2000/svg">
<path d="M23.4181 10.0155H22.7402V6.77138C22.7402 6.75115 22.737 6.73076 22.7345 6.71013C22.7335 6.58146 22.6919 6.45488 22.6029 6.35469L17.16 0.187785C17.1583 0.186209 17.1567 0.18565 17.1556 0.183921C17.1232 0.147981 17.0853 0.11809 17.0454 0.0922148C17.0335 0.0843354 17.0216 0.0777268 17.0092 0.0707624C16.9745 0.0521568 16.9378 0.0364487 16.9 0.0252142C16.8897 0.0225199 16.8805 0.0183515 16.8702 0.0156572C16.8291 0.00604937 16.7864 0 16.7432 0H3.367C2.75618 0 2.25997 0.492744 2.25997 1.09809V10.0152H1.58228C0.708496 10.0152 0 10.7177 0 11.5846V19.746C0 20.6121 0.708496 21.3152 1.58228 21.3152H2.26002V26.9019C2.26002 27.5072 2.75624 28 3.36705 28H21.633C22.2432 28 22.74 27.5073 22.74 26.9019V21.3152H23.4178C24.2914 21.3152 25 20.6123 25 19.746V11.5849C24.9999 10.7177 24.2918 10.0155 23.4181 10.0155ZM3.367 1.09809H16.1897V6.71587C16.1897 7.0192 16.4378 7.26489 16.7432 7.26489H21.6329V10.0155H3.367V1.09809ZM15.7883 18.0131V19.6055H10.5067V11.2195H12.4266V18.0131H15.7883ZM2.19078 19.6052L4.637 15.3626L2.27847 11.2195H4.47371L5.21373 12.7496C5.46481 13.2595 5.65305 13.6705 5.85386 14.1432H5.87861C6.07982 13.6079 6.24254 13.2347 6.45565 12.7496L7.1708 11.2195H9.35349L6.96985 15.313L9.47916 19.6054H7.27121L6.50608 18.0876C6.19268 17.5026 5.99172 17.0673 5.75351 16.5821H5.72839C5.55255 17.0676 5.33975 17.5032 5.07637 18.0876L4.37367 19.6054H2.19078V19.6052ZM21.633 26.6047H3.367V21.3152H21.6329V26.6047H21.633ZM18.9864 19.7304C18.021 19.7304 17.0673 19.4811 16.5911 19.22L16.9795 17.6523C17.494 17.9134 18.2843 18.175 19.1 18.175C19.9784 18.175 20.4421 17.8141 20.4421 17.2667C20.4421 16.744 20.0408 16.4454 19.0246 16.0845C17.6197 15.599 16.7038 14.8278 16.7038 13.6079C16.7038 12.1769 17.9081 11.0822 19.9033 11.0822C20.8562 11.0822 21.5589 11.2819 22.0606 11.5053L21.6341 13.0359C21.2955 12.8739 20.6931 12.6376 19.8655 12.6376C19.0376 12.6376 18.6363 13.0107 18.6363 13.4466C18.6363 13.9816 19.1125 14.2183 20.2041 14.6289C21.6968 15.1763 22.3995 15.9474 22.3995 17.1295C22.3989 18.5358 21.3078 19.7304 18.9864 19.7304Z" fill="#2E7D32"/>
</svg>
