<svg width="12" height="12" viewBox="0 0 12 12" fill="none" xmlns="http://www.w3.org/2000/svg">
<path d="M11.7362 5.36288L7.23401 1.61104C7.08098 1.48507 6.88433 1.42477 6.68699 1.44329C6.48965 1.46181 6.30766 1.55766 6.18074 1.7099C6.05383 1.86215 5.99231 2.05842 6.00961 2.25587C6.02691 2.45332 6.12163 2.6359 6.27309 2.76376L9.18294 5.18887H0.750369C0.551359 5.18887 0.3605 5.26793 0.219778 5.40865C0.0790567 5.54937 0 5.74023 0 5.93924C0 6.13825 0.0790567 6.32911 0.219778 6.46983C0.3605 6.61055 0.551359 6.68961 0.750369 6.68961H9.18324L6.27309 9.11473C6.12024 9.24217 6.02427 9.42512 6.00631 9.62332C5.98835 9.82152 6.04985 10.0187 6.1773 10.1716C6.30475 10.3244 6.48769 10.4204 6.68589 10.4384C6.88409 10.4563 7.08131 10.3948 7.23416 10.2674L11.7364 6.51553C11.8191 6.44402 11.8855 6.35553 11.931 6.25607C11.9765 6.15662 12 6.04853 12 5.93917C12 5.82981 11.9764 5.72173 11.9309 5.62229C11.8854 5.52284 11.819 5.43437 11.7362 5.36288Z" fill="#B5B5D6"/>
</svg>
