<svg width="30" height="30" viewBox="0 0 30 30" fill="none" xmlns="http://www.w3.org/2000/svg">
<path fill-rule="evenodd" clip-rule="evenodd" d="M0.603581 26.4892C-0.199597 27.2925 -0.199473 28.5946 0.603829 29.3977C1.40713 30.2008 2.70941 30.2008 3.51257 29.3975L15.0003 17.9087L26.4889 29.3965C27.2921 30.1996 28.5944 30.1996 29.3976 29.3965C30.2008 28.5933 30.2008 27.2911 29.3976 26.488L17.9088 15L29.3968 3.51078C30.1998 2.70754 30.1998 1.40536 29.3964 0.602262C28.5932 -0.200856 27.2908 -0.200734 26.4877 0.602508L14.9998 12.0915L3.51117 0.603496C2.70795 -0.199664 1.40565 -0.199664 0.60243 0.603496C-0.20081 1.40668 -0.20081 2.70886 0.60243 3.51204L12.0915 15.0002L0.603581 26.4892Z" fill="#FFFFFF"/>
</svg>
