<svg width="50" height="50" viewBox="0 0 50 50" fill="none" xmlns="http://www.w3.org/2000/svg">
<path d="M25 0C20.0555 0 15.222 1.46622 11.1108 4.21326C6.99953 6.96029 3.79521 10.8648 1.90302 15.4329C0.0108323 20.0011 -0.484251 25.0277 0.480379 29.8773C1.44501 34.7268 3.82603 39.1813 7.32234 42.6777C10.8187 46.174 15.2732 48.555 20.1227 49.5196C24.9723 50.4842 29.9989 49.9892 34.5671 48.097C39.1352 46.2048 43.0397 43.0005 45.7867 38.8892C48.5338 34.778 50 29.9445 50 25C50 18.3696 47.3661 12.0107 42.6777 7.32233C37.9893 2.63392 31.6304 0 25 0ZM25 43.8333C24.3407 43.8333 23.6963 43.6378 23.1481 43.2716C22.5999 42.9053 22.1727 42.3847 21.9204 41.7756C21.6681 41.1665 21.6021 40.4963 21.7307 39.8497C21.8593 39.2031 22.1768 38.6091 22.643 38.143C23.1092 37.6768 23.7031 37.3593 24.3497 37.2307C24.9963 37.1021 25.6665 37.1681 26.2756 37.4204C26.8847 37.6727 27.4053 38.0999 27.7716 38.6481C28.1378 39.1963 28.3333 39.8407 28.3333 40.5C28.3333 41.384 27.9821 42.2319 27.357 42.857C26.7319 43.4821 25.8841 43.8333 25 43.8333ZM30.75 15.6667L26.6667 32.3C26.5707 32.6531 26.3613 32.9647 26.0706 33.187C25.7799 33.4092 25.4242 33.5296 25.0583 33.5296C24.6925 33.5296 24.3368 33.4092 24.0461 33.187C23.7554 32.9647 23.546 32.6531 23.45 32.3L19.3333 15.6333C19.1242 14.7637 19.115 13.858 19.3063 12.9842C19.4977 12.1105 19.8846 11.2916 20.4381 10.5889C20.9915 9.8863 21.697 9.31828 22.5016 8.9276C23.3062 8.53692 24.1889 8.33374 25.0833 8.33333C25.9754 8.34188 26.8538 8.55259 27.6527 8.94961C28.4515 9.34664 29.15 9.91964 29.6954 10.6255C30.2409 11.3314 30.6191 12.1518 30.8018 13.0249C30.9845 13.8981 30.9668 14.8013 30.75 15.6667Z" fill="#EE8070"/>
</svg>
