<svg width="16" height="9" viewBox="0 0 16 9" fill="none" xmlns="http://www.w3.org/2000/svg">
<path fill-rule="evenodd" clip-rule="evenodd" d="M7.21619 8.68644C7.21801 8.68826 7.21983 8.69006 7.22166 8.69186C7.26732 8.73678 7.31608 8.77678 7.36727 8.81187C7.37424 8.81665 7.38126 8.82134 7.38832 8.82594C7.80334 9.09627 8.36789 9.05161 8.73349 8.69195C8.73783 8.68769 8.74211 8.6834 8.74635 8.67909L14.7802 2.74346C15.1976 2.3328 15.1976 1.667 14.7802 1.25635C14.3627 0.845701 13.6859 0.845702 13.2685 1.25635L7.97753 6.46119L2.68668 1.25644C2.26924 0.845788 1.59242 0.845788 1.17498 1.25644C0.757534 1.66709 0.757536 2.33289 1.17498 2.74354L7.21619 8.68644Z" fill="#008AD8"/>
</svg>
