<svg width="16" height="9" viewBox="0 0 16 9" fill="none" xmlns="http://www.w3.org/2000/svg">
<path fill-rule="evenodd" clip-rule="evenodd" d="M7.21619 1.2618C7.21801 1.25999 7.21983 1.25818 7.22166 1.25638C7.26732 1.21146 7.31608 1.17146 7.36727 1.13637C7.37424 1.13159 7.38126 1.1269 7.38832 1.1223C7.80334 0.851974 8.36789 0.896633 8.73349 1.25629C8.73783 1.26055 8.74211 1.26484 8.74635 1.26915L14.7802 7.20479C15.1976 7.61544 15.1976 8.28124 14.7802 8.69189C14.3627 9.10254 13.6859 9.10254 13.2685 8.69189L7.97753 3.48705L2.68668 8.6918C2.26924 9.10245 1.59242 9.10245 1.17498 8.6918C0.757534 8.28115 0.757536 7.61535 1.17498 7.2047L7.21619 1.2618Z" fill="#008AD8"/>
</svg>
