<svg width="52" height="47" viewBox="0 0 52 47" fill="none" xmlns="http://www.w3.org/2000/svg">
<path d="M45.3198 46.9999H6.16647C2.76631 46.9999 0 44.2337 0 40.8334V11.9917C0 8.59151 2.76631 5.8252 6.16647 5.8252H45.32C48.7202 5.8252 51.4865 8.59151 51.4865 11.9917V40.8334C51.4863 44.2337 48.7202 46.9999 45.3198 46.9999ZM6.16647 8.8129C4.41358 8.8129 2.9877 10.2388 2.9877 11.9917V40.8334C2.9877 42.5862 4.41358 44.0122 6.16647 44.0122H45.32C47.0727 44.0122 48.4988 42.5863 48.4988 40.8334V11.9917C48.4988 10.2389 47.0729 8.8129 45.32 8.8129H6.16647V8.8129Z" fill="#999999"/>
<path d="M10.8241 11.6135H9.0893C7.97145 11.6135 7.06543 10.7074 7.06543 9.58967V3.51777C7.06543 2.39992 7.9716 1.4939 9.0893 1.4939H10.8241C11.942 1.4939 12.848 2.40007 12.848 3.51777V9.58967C12.848 10.7074 11.9418 11.6135 10.8241 11.6135Z" fill="white"/>
<path d="M10.8238 13.1073H9.08901C7.14939 13.1073 5.57129 11.5292 5.57129 9.58963V3.51772C5.57129 1.5781 7.14939 0 9.08901 0H10.8238C12.7634 0 14.3415 1.5781 14.3415 3.51772V9.58948C14.3415 11.5292 12.7634 13.1073 10.8238 13.1073ZM9.08901 2.9877C8.79666 2.9877 8.55899 3.22552 8.55899 3.51772V9.58948C8.55899 9.88182 8.79681 10.1195 9.08901 10.1195H10.8238C11.1162 10.1195 11.3538 9.88167 11.3538 9.58948V3.51772C11.3538 3.22537 11.116 2.9877 10.8238 2.9877H9.08901Z" fill="#999999"/>
<path d="M42.3969 11.6135H40.6621C39.5442 11.6135 38.6382 10.7074 38.6382 9.58967V3.51777C38.6382 2.39992 39.5444 1.4939 40.6621 1.4939H42.3969C43.5147 1.4939 44.4207 2.40007 44.4207 3.51777V9.58967C44.4209 10.7074 43.5147 11.6135 42.3969 11.6135Z" fill="white"/>
<path d="M42.3971 13.1073H40.6623C38.7226 13.1073 37.1445 11.5292 37.1445 9.58963V3.51772C37.1445 1.5781 38.7226 0 40.6623 0H42.3971C44.3367 0 45.9148 1.5781 45.9148 3.51772V9.58948C45.9148 11.5292 44.3367 13.1073 42.3971 13.1073ZM40.6623 2.9877C40.3699 2.9877 40.1322 3.22552 40.1322 3.51772V9.58948C40.1322 9.88182 40.3701 10.1195 40.6623 10.1195H42.3971C42.6894 10.1195 42.9271 9.88167 42.9271 9.58948V3.51772C42.9271 3.22537 42.6893 2.9877 42.3971 2.9877H40.6623Z" fill="#999999"/>
<path d="M26.6102 11.6135H24.8754C23.7576 11.6135 22.8516 10.7074 22.8516 9.58967V3.51777C22.8516 2.39992 23.7577 1.4939 24.8754 1.4939H26.6102C27.7281 1.4939 28.6341 2.40007 28.6341 3.51777V9.58967C28.6341 10.7074 27.7281 11.6135 26.6102 11.6135Z" fill="white"/>
<path d="M26.6104 13.1073H24.8756C22.936 13.1073 21.3579 11.5292 21.3579 9.58963V3.51772C21.3579 1.5781 22.936 0 24.8756 0H26.6104C28.5501 0 30.1282 1.5781 30.1282 3.51772V9.58948C30.1283 11.5292 28.5502 13.1073 26.6104 13.1073ZM24.8756 2.9877C24.5833 2.9877 24.3456 3.22552 24.3456 3.51772V9.58948C24.3456 9.88182 24.5834 10.1195 24.8756 10.1195H26.6104C26.9028 10.1195 27.1405 9.88167 27.1405 9.58948V3.51772C27.1405 3.22537 26.9026 2.9877 26.6104 2.9877H24.8756Z" fill="#999999"/>
<path d="M49.9923 17.7391V11.9917C49.9923 9.41108 47.9003 7.31909 45.3197 7.31909H6.16627C3.58564 7.31924 1.49365 9.41123 1.49365 11.9917V17.7391H49.9923Z" fill="white"/>
<path d="M51.4863 19.2328H0V11.9917C0 8.59151 2.76631 5.8252 6.16647 5.8252H45.32C48.7202 5.8252 51.4865 8.59151 51.4865 11.9917L51.4863 19.2328ZM2.9877 16.2451H48.4986V11.9917C48.4986 10.2389 47.0727 8.8129 45.3198 8.8129H6.16647C4.41358 8.8129 2.9877 10.2388 2.9877 11.9917V16.2451Z" fill="#999999"/>
<path d="M9.46036 29.3349H6.47266V24.9858C6.47266 23.7185 7.50386 22.6873 8.77124 22.6873H13.9419V25.675H9.46036V29.3349Z" fill="#999999"/>
<path d="M19.8676 29.3349H16.8799V24.9858C16.8799 23.7185 17.9111 22.6873 19.1785 22.6873H24.3491V25.675H19.8676V29.3349Z" fill="#999999"/>
<path d="M30.2748 29.3349H27.2871V24.9858C27.2871 23.7185 28.3182 22.6873 29.5857 22.6873H34.7564V25.675H30.2748V29.3349Z" fill="#999999"/>
<path d="M40.682 29.3349H37.6943V24.9858C37.6943 23.7185 38.7255 22.6873 39.9929 22.6873H45.1636V25.675H40.682V29.3349Z" fill="#444444"/>
<path d="M9.46036 40.0905H6.47266V35.7415C6.47266 34.4741 7.50386 33.4429 8.77124 33.4429H13.9419V36.4306H9.46036V40.0905Z" fill="#999999"/>
<path d="M19.8676 40.0905H16.8799V35.7415C16.8799 34.4741 17.9111 33.4429 19.1785 33.4429H24.3491V36.4306H19.8676V40.0905Z" fill="#999999"/>
<path d="M30.2748 40.0905H27.2871V35.7415C27.2871 34.4741 28.3182 33.4429 29.5857 33.4429H34.7564V36.4306H30.2748V40.0905Z" fill="#999999"/>
<path d="M40.682 40.0905H37.6943V35.7415C37.6943 34.4741 38.7255 33.4429 39.9929 33.4429H45.1636V36.4306H40.682V40.0905Z" fill="#999999"/>
</svg>
