<svg width="23" height="30" viewBox="0 0 23 30" fill="none" xmlns="http://www.w3.org/2000/svg">
<path d="M1.12061 27.4138V8.01724V2.58621C1.12061 1.43403 2.05463 0.5 3.20681 0.5H14.8963L21.8447 7.44848V27.4138C21.8447 28.566 20.9107 29.5 19.7585 29.5H3.20681C2.05463 29.5 1.12061 28.566 1.12061 27.4138Z" fill="white" stroke="#666666"/>
<path d="M15.1035 4.65517V0L22.3449 7.24138H17.6897C16.2614 7.24138 15.1035 6.08349 15.1035 4.65517Z" fill="#666666"/>
<path d="M6.31018 10.8621H5.27569C4.70436 10.8621 4.24121 11.3252 4.24121 11.8965V23.2759C4.24121 23.8472 4.70436 24.3103 5.27569 24.3103H6.31018C6.88151 24.3103 7.34466 23.8472 7.34466 23.2759V11.8965C7.34466 11.3252 6.88151 10.8621 6.31018 10.8621Z" fill="#444444"/>
<path d="M11.9999 14.4828H10.9654C10.3941 14.4828 9.93091 14.9459 9.93091 15.5172V23.2759C9.93091 23.8472 10.3941 24.3103 10.9654 24.3103H11.9999C12.5712 24.3103 13.0344 23.8472 13.0344 23.2759V15.5172C13.0344 14.9459 12.5712 14.4828 11.9999 14.4828Z" fill="#444444"/>
<path d="M17.6896 18.1035H16.6551C16.0838 18.1035 15.6206 18.5666 15.6206 19.1379V23.2759C15.6206 23.8472 16.0838 24.3104 16.6551 24.3104H17.6896C18.2609 24.3104 18.7241 23.8472 18.7241 23.2759V19.1379C18.7241 18.5666 18.2609 18.1035 17.6896 18.1035Z" fill="#444444"/>
<path d="M19.2413 27.4138H3.72403C3.43836 27.4138 3.20679 27.1822 3.20679 26.8965C3.20679 26.6109 3.43836 26.3793 3.72403 26.3793H19.2413C19.5269 26.3793 19.7585 26.6109 19.7585 26.8965C19.7585 27.1822 19.5269 27.4138 19.2413 27.4138Z" fill="#999999"/>
<path d="M12.5171 3.62069H3.72403C3.43836 3.62069 3.20679 3.38912 3.20679 3.10345C3.20679 2.81779 3.43836 2.58621 3.72403 2.58621H12.5171C12.8028 2.58621 13.0344 2.81779 13.0344 3.10345C13.0344 3.38912 12.8028 3.62069 12.5171 3.62069Z" fill="#666666"/>
<path d="M12.5171 6.20691H3.72403C3.43836 6.20691 3.20679 5.97533 3.20679 5.68967C3.20679 5.404 3.43836 5.17242 3.72403 5.17242H12.5171C12.8028 5.17242 13.0344 5.404 13.0344 5.68967C13.0344 5.97533 12.8028 6.20691 12.5171 6.20691Z" fill="#666666"/>
<path d="M8.3792 8.79309H3.72403C3.43836 8.79309 3.20679 8.56151 3.20679 8.27585C3.20679 7.99018 3.43836 7.75861 3.72403 7.75861H8.3792C8.66487 7.75861 8.89644 7.99018 8.89644 8.27585C8.89644 8.56151 8.66487 8.79309 8.3792 8.79309Z" fill="#666666"/>
</svg>
