<svg width="44" height="49" viewBox="0 0 44 49" fill="none" xmlns="http://www.w3.org/2000/svg">
<path d="M22 47C33.0457 47 42 38.0457 42 27C42 15.9543 33.0457 7 22 7C10.9543 7 2 15.9543 2 27C2 38.0457 10.9543 47 22 47Z" fill="white"/>
<path fill-rule="evenodd" clip-rule="evenodd" d="M42.1817 25.3983C41.4414 25.3983 40.8412 25.9984 40.8412 26.7388C40.8412 36.9838 32.5063 45.319 22.261 45.319C12.0158 45.319 3.68101 36.9839 3.68101 26.7388C3.68101 16.4936 12.016 8.15877 22.2612 8.15877C26.3403 8.15877 30.2793 9.4945 33.5004 11.9438L31.0636 14.3807C30.0889 15.3554 30.6575 16.1213 31.0636 16.3825L41.7225 19.573C41.8372 19.6037 41.9537 19.6188 42.0694 19.6188H42.0846C42.8191 19.6121 43.4126 19.0145 43.4126 18.2783C43.4126 18.1271 43.3875 17.9816 43.3414 17.8461L40.6155 7.67261C40.4915 7.20996 40.1303 6.84873 39.6676 6.72472C39.2048 6.6007 38.7113 6.73307 38.3726 7.07162L35.4113 10.033C32.023 7.36344 27.909 5.7917 23.6017 5.5208V3.68101H25.2281C25.9684 3.68101 26.5686 3.08085 26.5686 2.34051C26.5686 1.60017 25.9684 1 25.228 1H19.2943C18.554 1 17.9538 1.60017 17.9538 2.34051C17.9538 3.08085 18.554 3.68101 19.2943 3.68101H20.9207V5.52117C9.81955 6.21543 1 15.4657 1 26.7388C1 38.4621 10.5377 48 22.2612 48C33.9848 48 43.5224 38.4623 43.5224 26.7388C43.5223 25.9984 42.9221 25.3983 42.1817 25.3983ZM40.1736 16.3825L38.6266 10.6093L34.4004 14.8355L40.1736 16.3825Z" fill="#999999"/>
<path d="M42.0694 19.6188C41.9537 19.6188 41.8372 19.6037 41.7225 19.573L31.0636 16.3825C30.6575 16.1213 30.0889 15.3554 31.0636 14.3807L33.5004 11.9438C30.2793 9.4945 26.3403 8.15877 22.2612 8.15877C12.016 8.15877 3.68101 16.4936 3.68101 26.7388C3.68101 36.9839 12.0158 45.319 22.261 45.319C32.5063 45.319 40.8412 36.9838 40.8412 26.7388C40.8412 25.9984 41.4414 25.3983 42.1817 25.3983C42.9221 25.3983 43.5223 25.9984 43.5224 26.7388C43.5224 38.4623 33.9848 48 22.2612 48C10.5377 48 1 38.4621 1 26.7388C1 15.4657 9.81955 6.21543 20.9207 5.52117V3.68101H19.2943C18.554 3.68101 17.9538 3.08085 17.9538 2.34051C17.9538 1.60017 18.554 1 19.2943 1H25.228C25.9684 1 26.5686 1.60017 26.5686 2.34051C26.5686 3.08085 25.9684 3.68101 25.2281 3.68101H23.6017V5.5208C27.909 5.7917 32.023 7.36344 35.4113 10.033L38.3726 7.07162C38.7113 6.73307 39.2048 6.6007 39.6676 6.72472C40.1303 6.84873 40.4915 7.20996 40.6155 7.67261L43.3414 17.8461C43.3875 17.9816 43.4126 18.1271 43.4126 18.2783C43.4126 19.0145 42.8191 19.6121 42.0846 19.6188M42.0694 19.6188C42.0744 19.6188 42.0796 19.6188 42.0846 19.6188M42.0694 19.6188H42.0846M38.6266 10.6093L40.1736 16.3825L34.4004 14.8355L38.6266 10.6093Z" stroke="#999999" stroke-width="0.5"/>
<rect x="28.1606" y="18" width="3.50397" height="12.4572" rx="1.75198" transform="rotate(44.2681 28.1606 18)" fill="#444444"/>
<circle cx="21.5" cy="27.5" r="3.5" fill="#444444"/>
</svg>
