<svg width="12" height="12" viewBox="0 0 12 12" fill="none" xmlns="http://www.w3.org/2000/svg">
<path fill-rule="evenodd" clip-rule="evenodd" d="M10.2929 11.7071C10.6834 12.0976 11.3166 12.0976 11.7071 11.7071C12.0976 11.3165 12.0976 10.6834 11.7071 10.2929L7.46447 6.05021L11.7071 1.80757C12.0976 1.41705 12.0976 0.783883 11.7071 0.393358C11.3166 0.00283412 10.6834 0.00283409 10.2929 0.393358L6.05025 4.636L1.80761 0.393357C1.41709 0.00283284 0.783924 0.00283275 0.393399 0.393357C0.00287534 0.783881 0.00287534 1.41705 0.393399 1.80757L4.63604 6.05021L0.393397 10.2929C0.00287343 10.6834 0.00287343 11.3165 0.393397 11.7071C0.783922 12.0976 1.41709 12.0976 1.80761 11.7071L6.05025 7.46443L10.2929 11.7071Z" fill="#444444"/>
</svg>
