<svg width="41" height="47" viewBox="0 0 41 47" fill="none" xmlns="http://www.w3.org/2000/svg">
<path d="M10.6724 2.88557C11.235 2.32337 11.9978 2.00757 12.7931 2.00757H35.1688C36.8256 2.00757 38.1688 3.35071 38.1688 5.00757V42.1709C38.1688 43.8278 36.8256 45.1709 35.1688 45.1709H5.00879C3.35193 45.1709 2.00879 43.8278 2.00879 42.1709V12.7869C2.00879 11.9909 2.32512 11.2275 2.88815 10.6649L10.6724 2.88557Z" fill="white"/>
<path d="M10.8571 14.3966H1.73619C1.25018 14.3966 0.787139 14.1876 0.465552 13.8233C0.143597 13.4583 -0.00612867 12.9722 0.0548637 12.4894C0.24822 10.9566 0.956521 9.51203 2.04906 8.42195L8.4279 2.0472C9.59979 0.8745 11.1567 0.155179 12.8113 0.0225327C13.8108 -0.0563208 14.6446 0.732031 14.6446 1.71049V10.6119C14.6443 12.6987 12.9455 14.3966 10.8571 14.3966ZM3.3524 11.4979H10.8571C11.3461 11.4979 11.7439 11.1005 11.7439 10.6119V3.23634C11.2756 3.4394 10.8457 3.73003 10.4798 4.09629L4.09937 10.4726C3.79753 10.7736 3.54585 11.1211 3.3524 11.4979Z" fill="#999999"/>
<path d="M34.0978 47H6.07985C2.72738 47 0 44.2743 0 40.9241V13.3642C0 13.1964 0.00652188 13.0208 0.0195654 12.8419C0.145592 11.1708 0.866293 9.60223 2.04912 8.422L8.42796 2.04716C9.68804 0.786148 11.3648 0.060127 13.1484 0.00358008C13.2277 0.00156055 13.3011 0 13.3728 0H34.0978C37.4503 0 40.1778 2.72573 40.1778 6.07585V27.8485C40.1778 28.6489 39.5284 29.2979 38.7275 29.2979C37.9266 29.2979 37.2771 28.6489 37.2771 27.8485V6.07585C37.2771 4.324 35.8509 2.89876 34.0979 2.89876H13.3728C13.3265 2.89876 13.2791 2.90005 13.2328 2.90124C12.1975 2.9341 11.2173 3.35848 10.48 4.09625L4.09962 10.4726C3.40739 11.1633 2.98587 12.0807 2.91238 13.0563C2.90467 13.1615 2.90063 13.2663 2.90063 13.3642V40.9241C2.90063 42.676 4.32669 44.1012 6.07976 44.1012H34.0978C35.8508 44.1012 37.2771 42.676 37.2771 40.9241V36.5445C37.2771 35.7441 37.9265 35.0951 38.7274 35.0951C39.5283 35.0951 40.1777 35.7441 40.1777 36.5445V40.9241C40.1778 44.2744 37.4504 47 34.0978 47Z" fill="#999999"/>
<path d="M17.6524 26.0985H11.3154C10.6135 26.0985 10.0444 25.5296 10.0444 24.8276V21.102C10.0444 20.4001 10.6134 19.8311 11.3154 19.8311H17.6524C18.3542 19.8311 18.9233 20.4 18.9233 21.102V24.8276C18.9233 25.5295 18.3542 26.0985 17.6524 26.0985Z" fill="white"/>
<path d="M17.6525 27.1429H11.3155C10.0387 27.1429 9 26.1043 9 24.8275V21.1019C9 19.8251 10.0387 18.7864 11.3155 18.7864H17.6525C18.9293 18.7864 19.968 19.8251 19.968 21.1019V24.8275C19.968 26.1043 18.9293 27.1429 17.6525 27.1429ZM11.3155 20.8755C11.1907 20.8755 11.0891 20.977 11.0891 21.1019V24.8275C11.0891 24.9522 11.1907 25.0537 11.3155 25.0537H17.6525C17.7773 25.0537 17.8789 24.9522 17.8789 24.8275V21.1019C17.8789 20.977 17.7773 20.8755 17.6525 20.8755H11.3155V20.8755Z" fill="#444444"/>
<path d="M26.7122 26.0897C26.2548 26.0897 25.8248 25.9116 25.5013 25.5881L23.1592 23.246L24.6365 21.7687L26.7122 23.8443L30.4116 20.145L31.8889 21.6223L27.923 25.5881C27.5997 25.9115 27.1697 26.0897 26.7122 26.0897Z" fill="#444444"/>
<path d="M17.6524 37.955H11.3154C10.6135 37.955 10.0444 37.386 10.0444 36.6841V32.9584C10.0444 32.2566 10.6134 31.6875 11.3154 31.6875H17.6524C18.3542 31.6875 18.9233 32.2565 18.9233 32.9584V36.6841C18.9233 37.386 18.3542 37.955 17.6524 37.955Z" fill="white"/>
<path d="M17.6525 39H11.3155C10.0387 39 9 37.9613 9 36.6846V32.959C9 31.6823 10.0387 30.6436 11.3155 30.6436H17.6525C18.9293 30.6436 19.968 31.6823 19.968 32.959V36.6846C19.968 37.9613 18.9293 39 17.6525 39ZM11.3155 32.7327C11.1907 32.7327 11.0891 32.8342 11.0891 32.959V36.6846C11.0891 36.8094 11.1907 36.9109 11.3155 36.9109H17.6525C17.7773 36.9109 17.8789 36.8094 17.8789 36.6846V32.959C17.8789 32.8342 17.7773 32.7327 17.6525 32.7327H11.3155Z" fill="#444444"/>
<path d="M26.7122 37.947C26.2548 37.947 25.8248 37.7689 25.5013 37.4454L23.1592 35.1032L24.6365 33.6259L26.7122 35.7016L30.4116 32.0022L31.8889 33.4795L27.923 37.4454C27.5997 37.7688 27.1697 37.947 26.7122 37.947Z" fill="#444444"/>
</svg>
