<svg width="25" height="28" viewBox="0 0 25 28" fill="none" xmlns="http://www.w3.org/2000/svg">
<path d="M23.4179 10.0155H22.7401V6.77108C22.7401 6.7507 22.7368 6.73048 22.7342 6.70979C22.7331 6.5811 22.6917 6.45446 22.6028 6.35436L17.1601 0.187776C17.1585 0.18604 17.1568 0.185529 17.1557 0.183946C17.1233 0.147841 17.0855 0.117967 17.0455 0.0922284C17.0336 0.0842108 17.0217 0.077623 17.0092 0.070831C16.9746 0.0521913 16.9379 0.0365135 16.9 0.0252275C16.8898 0.022572 16.8806 0.0183844 16.8704 0.0156267C16.8292 0.006026 16.7865 0 16.7433 0H3.36703C2.7562 0 2.26003 0.492753 2.26003 1.09806V10.0152H1.58232C0.708499 10.0152 0 10.7176 0 11.5845V19.7456C0 20.612 0.708499 21.3152 1.58232 21.3152H2.26003V26.902C2.26003 27.5073 2.7562 28 3.36703 28H21.6331C22.2433 28 22.7401 27.5073 22.7401 26.902V21.3153H23.4179C24.2914 21.3153 25 20.6124 25 19.7459V11.5848C25.0001 10.7177 24.2914 10.0155 23.4179 10.0155ZM3.36703 1.09806H16.1898V6.71582C16.1898 7.01916 16.4378 7.26485 16.7433 7.26485H21.6331V10.0154H3.36703V1.09806ZM11.7006 15.9934C10.327 15.5189 9.43197 14.7651 9.43197 13.5734C9.43197 12.1739 10.609 11.1033 12.5589 11.1033C13.4911 11.1033 14.178 11.2979 14.6682 11.5173L14.2516 13.0136C13.9206 12.8549 13.332 12.6239 12.5222 12.6239C11.713 12.6239 11.3206 12.9889 11.3206 13.4146C11.3206 13.9379 11.7864 14.1689 12.8538 14.5704C14.313 15.1055 14.9998 15.8593 14.9998 17.0152C14.9998 18.3894 13.933 19.5577 11.6639 19.5577C10.7198 19.5577 9.78733 19.3138 9.32149 19.0587L9.70145 17.5259C10.2046 17.782 10.977 18.0369 11.7745 18.0369C12.6328 18.0369 13.0868 17.6841 13.0868 17.1485C13.0865 16.6373 12.6938 16.3457 11.7006 15.9934ZM1.96234 15.4578C1.96234 12.6603 3.9741 11.1033 6.47529 11.1033C7.44436 11.1033 8.18014 11.2979 8.51151 11.4684L8.13092 12.94C7.75096 12.7825 7.22312 12.6367 6.56107 12.6367C5.07714 12.6367 3.92467 13.524 3.92467 15.3483C3.92467 16.9906 4.90553 18.0243 6.57394 18.0243C7.13755 18.0243 7.76311 17.9028 8.13092 17.7568L8.41322 19.2043C8.06971 19.3749 7.29731 19.5577 6.29159 19.5577C3.43412 19.5577 1.96234 17.7932 1.96234 15.4578ZM21.6331 26.6044H3.36703V21.3153H21.6331V26.6044ZM20.3966 19.4355H18.2136L15.5647 11.2373H17.6132L18.6185 14.7045C18.9006 15.6771 19.158 16.6137 19.3547 17.6356H19.3912C19.5996 16.6501 19.8569 15.6771 20.1391 14.7405L21.1938 11.2373H23.1812L20.3966 19.4355Z" fill="#2E7D32"/>
</svg>
