<svg width="30" height="30" viewBox="0 0 30 30" fill="none" xmlns="http://www.w3.org/2000/svg">
<path d="M27.9662 4.59152V25.9322C27.9662 26.4716 27.7519 26.989 27.3705 27.3704C26.989 27.7518 26.4717 27.9661 25.9323 27.9661H2.54244C2.00302 27.9661 1.48569 27.7518 1.10426 27.3704C0.72283 26.989 0.508545 26.4716 0.508545 25.9322V4.59152H27.9662Z" fill="white"/>
<path d="M27.9662 2.54238V4.59153H0.508545V2.54238C0.508545 2.00296 0.72283 1.48563 1.10426 1.1042C1.48569 0.722769 2.00302 0.508484 2.54244 0.508484H25.9323C26.4717 0.508484 26.989 0.722769 27.3705 1.1042C27.7519 1.48563 27.9662 2.00296 27.9662 2.54238V2.54238Z" fill="white"/>
<path d="M27.6967 23.2119C27.5652 23.6715 27.3827 24.1149 27.1526 24.5339L27.9662 25.6169L28.5458 26.3898L26.3899 28.5458L25.617 27.9661L24.5339 27.1525C24.115 27.3827 23.6715 27.5652 23.2119 27.6966L23.1712 27.9661L22.8814 30H19.8306L19.5407 27.9661L19.5 27.6966C19.0404 27.5652 18.597 27.3827 18.178 27.1525L17.095 27.9661L16.3221 28.5458L15.7424 27.9661L14.1662 26.3898L15.5594 24.5339C15.3292 24.1149 15.1467 23.6715 15.0153 23.2119L12.7119 22.8813V19.8305L15.0153 19.5C15.1467 19.0404 15.3292 18.5969 15.5594 18.178L14.1662 16.322L16.3221 14.1661L18.178 15.5593C18.597 15.3292 19.0404 15.1467 19.5 15.0152L19.8306 12.7119H22.8814L23.2119 15.0152C23.6715 15.1467 24.115 15.3292 24.5339 15.5593L26.3899 14.1661L28.5458 16.322L27.9662 17.0949L27.1526 18.178C27.3827 18.5969 27.5652 19.0404 27.6967 19.5L27.9662 19.5407L30.0001 19.8305V22.8813L27.9662 23.1712L27.6967 23.2119Z" fill="#444444"/>
<path d="M21.3561 25.9322C23.8835 25.9322 25.9323 23.8833 25.9323 21.3559C25.9323 18.8285 23.8835 16.7797 21.3561 16.7797C18.8287 16.7797 16.7798 18.8285 16.7798 21.3559C16.7798 23.8833 18.8287 25.9322 21.3561 25.9322Z" fill="white"/>
<path d="M8.1356 14.2373H12.7119C12.7119 15.1424 12.4435 16.0272 11.9406 16.7797C11.4378 17.5323 10.7231 18.1188 9.88686 18.4652C9.05066 18.8116 8.13052 18.9022 7.24281 18.7256C6.3551 18.549 5.53969 18.1132 4.89969 17.4732C4.25968 16.8332 3.82384 16.0178 3.64726 15.1301C3.47068 14.2424 3.56131 13.3222 3.90768 12.486C4.25404 11.6498 4.8406 10.9351 5.59316 10.4323C6.34572 9.9294 7.2305 9.66101 8.1356 9.66101V14.2373Z" fill="#444444"/>
<path d="M14.7457 12.2034H10.1694V7.62711C11.3831 7.62711 12.5471 8.10925 13.4053 8.96746C14.2636 9.82568 14.7457 10.9897 14.7457 12.2034V12.2034Z" fill="#444444"/>
<path d="M1.01695 25.9322V5.10102H27.4576V12.7119C27.4576 12.9927 27.6853 13.2203 27.9661 13.2203V13.2203C28.2469 13.2203 28.4746 12.9927 28.4746 12.7119V2.54237C28.4738 1.86834 28.2057 1.22215 27.729 0.745536C27.2524 0.268923 26.6062 0.000807385 25.9322 0H2.54237C1.86834 0.000807385 1.22215 0.268923 0.745536 0.745536C0.268923 1.22215 0.000807385 1.86834 0 2.54237V25.9322C0.000807385 26.6062 0.268923 27.2524 0.745536 27.729C1.22215 28.2057 1.86834 28.4738 2.54237 28.4746H13.2203C13.5012 28.4746 13.7288 28.2469 13.7288 27.9661V27.9661C13.7288 27.6853 13.5012 27.4576 13.2203 27.4576H2.54237C2.13781 27.4576 1.74981 27.2969 1.46374 27.0108C1.17766 26.7248 1.01695 26.3368 1.01695 25.9322ZM2.54237 1.01695H25.9322C26.3368 1.01695 26.7248 1.17766 27.0108 1.46374C27.2969 1.74981 27.4576 2.13781 27.4576 2.54237V4.08407H1.01695V2.54237C1.01695 2.13781 1.17766 1.74981 1.46374 1.46374C1.74981 1.17766 2.13781 1.01695 2.54237 1.01695Z" fill="#444444"/>
<path d="M3.05078 2.54238C3.05078 2.26156 3.27843 2.03391 3.55926 2.03391V2.03391C3.84008 2.03391 4.06773 2.26156 4.06773 2.54238V2.54238C4.06773 2.8232 3.84008 3.05085 3.55926 3.05085V3.05085C3.27843 3.05085 3.05078 2.8232 3.05078 2.54238V2.54238Z" fill="#444444"/>
<path d="M5.08472 2.54238C5.08472 2.26156 5.31237 2.03391 5.59319 2.03391V2.03391C5.87401 2.03391 6.10167 2.26156 6.10167 2.54238V2.54238C6.10167 2.8232 5.87401 3.05085 5.59319 3.05085V3.05085C5.31237 3.05085 5.08472 2.8232 5.08472 2.54238V2.54238Z" fill="#444444"/>
<path d="M7.11865 2.54238C7.11865 2.26156 7.3463 2.03391 7.62713 2.03391V2.03391C7.90795 2.03391 8.1356 2.26156 8.1356 2.54238V2.54238C8.1356 2.8232 7.90795 3.05085 7.62713 3.05085V3.05085C7.3463 3.05085 7.11865 2.8232 7.11865 2.54238V2.54238Z" fill="#444444"/>
<path d="M18.3052 7.62713C18.3052 7.3463 18.5328 7.11865 18.8137 7.11865H19.8306C20.1114 7.11865 20.3391 7.3463 20.3391 7.62713V7.62713C20.3391 7.90795 20.1114 8.1356 19.8306 8.1356H18.8137C18.5328 8.1356 18.3052 7.90795 18.3052 7.62713V7.62713Z" fill="#444444"/>
<path d="M21.356 7.62713C21.356 7.3463 21.5836 7.11865 21.8644 7.11865H24.9153C25.1961 7.11865 25.4238 7.3463 25.4238 7.62713V7.62713C25.4238 7.90795 25.1961 8.1356 24.9153 8.1356H21.8644C21.5836 8.1356 21.356 7.90795 21.356 7.62713V7.62713Z" fill="#444444"/>
<path d="M18.3052 9.661C18.3052 9.38018 18.5328 9.15253 18.8137 9.15253H24.9153C25.1962 9.15253 25.4238 9.38018 25.4238 9.661V9.661C25.4238 9.94182 25.1962 10.1695 24.9153 10.1695H18.8137C18.5328 10.1695 18.3052 9.94182 18.3052 9.661V9.661Z" fill="#444444"/>
<path d="M3.05078 21.8644C3.05078 21.5836 3.27843 21.3559 3.55926 21.3559H4.57621C4.85703 21.3559 5.08468 21.5836 5.08468 21.8644V21.8644C5.08468 22.1452 4.85703 22.3729 4.57621 22.3729H3.55926C3.27843 22.3729 3.05078 22.1452 3.05078 21.8644V21.8644Z" fill="#444444"/>
<path d="M6.10156 21.8644C6.10156 21.5836 6.32921 21.3559 6.61004 21.3559H10.6778C10.9587 21.3559 11.1863 21.5836 11.1863 21.8644V21.8644C11.1863 22.1452 10.9587 22.3729 10.6778 22.3729H6.61004C6.32921 22.3729 6.10156 22.1452 6.10156 21.8644V21.8644Z" fill="#444444"/>
<path d="M3.05078 23.8983C3.05078 23.6175 3.27843 23.3898 3.55926 23.3898H10.6779C10.9587 23.3898 11.1864 23.6175 11.1864 23.8983V23.8983C11.1864 24.1791 10.9587 24.4068 10.6779 24.4068H3.55926C3.27843 24.4068 3.05078 24.1791 3.05078 23.8983V23.8983Z" fill="#444444"/>
<path d="M3.05078 25.9322C3.05078 25.6514 3.27843 25.4237 3.55926 25.4237H10.6779C10.9587 25.4237 11.1864 25.6514 11.1864 25.9322V25.9322C11.1864 26.213 10.9587 26.4407 10.6779 26.4407H3.55926C3.27843 26.4407 3.05078 26.213 3.05078 25.9322V25.9322Z" fill="#444444"/>
</svg>
