<svg width="25" height="28" viewBox="0 0 25 28" fill="none" xmlns="http://www.w3.org/2000/svg">
<path d="M0.961426 3.86154C0.961426 2.20469 2.30457 0.861542 3.96143 0.861542H17.195C17.8895 0.861542 18.5625 1.10248 19.0991 1.54325L22.9424 4.69989C23.6362 5.26974 24.0383 6.12036 24.0383 7.01818V24.5692C24.0383 26.2261 22.6952 27.5692 21.0383 27.5692H3.96143C2.30457 27.5692 0.961426 26.2261 0.961426 24.5692V3.86154Z" fill="#F7F7F7"/>
<path fill-rule="evenodd" clip-rule="evenodd" d="M18.4285 0.0355173C18.4917 0.058968 18.5491 0.0933415 18.5975 0.136675L24.8475 5.73668C24.8958 5.78001 24.9342 5.83146 24.9604 5.88808C24.9865 5.9447 25 6.00538 25 6.06667V24.7333C24.9989 25.5994 24.6144 26.4297 23.9309 27.0421C23.2475 27.6545 22.3208 27.999 21.3542 28H3.64583C2.67924 27.999 1.75255 27.6545 1.06906 27.0421C0.385571 26.4297 0.00110279 25.5994 0 24.7333V3.26667C0.00110279 2.4006 0.385571 1.57028 1.06906 0.957876C1.75255 0.345471 2.67924 0.000988102 3.64583 3.09823e-10H18.2292C18.2976 -2.23274e-06 18.3653 0.0120665 18.4285 0.0355173ZM23.2218 5.6L18.75 1.59326V3.26667C18.7508 3.88529 19.0254 4.47838 19.5136 4.91582C20.0018 5.35325 20.6637 5.59931 21.3542 5.6H23.2218ZM17.7083 0.933333H3.64583C2.9554 0.934028 2.29347 1.18008 1.80527 1.61752C1.31706 2.05495 1.04244 2.64804 1.04167 3.26667V18.6083V20.5333V24.7333C1.04244 25.352 1.31706 25.945 1.80527 26.3825C2.29347 26.8199 2.9554 27.066 3.64583 27.0667H21.3542C22.0446 27.066 22.7065 26.8199 23.1947 26.3825C23.6829 25.945 23.9576 25.352 23.9583 24.7333V20.5333V19.6V6.53333H21.3542C20.3876 6.53235 19.4609 6.18786 18.7774 5.57546C18.0939 4.96305 17.7094 4.13274 17.7083 3.26667V0.933333Z" fill="#999999"/>
<path d="M4.68734 19.1333H20.3123C20.4505 19.1333 20.5829 19.0842 20.6806 18.9966C20.7783 18.9091 20.8332 18.7904 20.8332 18.6667V10.2667C20.8332 10.1429 20.7783 10.0242 20.6806 9.93667C20.5829 9.84915 20.4505 9.79999 20.3123 9.79999H4.68734C4.5492 9.79999 4.41673 9.84915 4.31905 9.93667C4.22138 10.0242 4.1665 10.1429 4.1665 10.2667V18.6667C4.1665 18.7904 4.22138 18.9091 4.31905 18.9966C4.41673 19.0842 4.5492 19.1333 4.68734 19.1333ZM5.20817 16.3333H9.37484V18.2H5.20817V16.3333ZM14.5832 13.5333V15.4H10.4165V13.5333H14.5832ZM10.4165 12.6V10.7333H14.5832V12.6H10.4165ZM15.6248 13.5333H19.7915V15.4H15.6248V13.5333ZM14.5832 16.3333V18.2H10.4165V16.3333H14.5832ZM9.37484 15.4H5.20817V13.5333H9.37484V15.4ZM15.6248 18.2V16.3333H19.7915V18.2H15.6248ZM19.7915 12.6H15.6248V10.7333H19.7915V12.6ZM9.37484 10.7333V12.6H5.20817V10.7333H9.37484Z" fill="#444444"/>
</svg>
