<svg width="40" height="47" viewBox="0 0 40 47" fill="none" xmlns="http://www.w3.org/2000/svg">
<path d="M10.0067 42H3.32667C1.49333 42 0 40.4931 0 38.6431V16.766C0 14.916 1.49333 13.4091 3.32667 13.4091H10.0067C11.84 13.4091 13.3333 14.916 13.3333 16.766V38.6431C13.3333 40.4931 11.84 42 10.0067 42ZM10.0067 38.6364V40.3182V38.6364ZM10 16.766L3.32667 16.7727L3.33333 38.6431L10.0017 38.6364L10 16.766V16.766ZM31.46 38.6364H11.6667C10.7467 38.6364 10 37.8846 10 36.9545V18.4545C10 17.5262 10.7467 16.7727 11.6667 16.7727H16.6667C17.5867 16.7727 18.3333 17.5262 18.3333 18.4545C18.3333 19.3829 17.5867 20.1364 16.6667 20.1364H13.3333V35.2727H31.46C32.0333 35.2727 32.5733 34.9633 32.8683 34.4671L36.4333 28.4731C36.585 28.2158 36.6667 27.9215 36.6667 27.6205V21.8249C36.6667 20.8949 35.9167 20.1364 34.9933 20.1364H25C24.405 20.1364 23.8533 19.8151 23.555 19.2938C23.2583 18.7724 23.26 18.13 23.56 17.6103C25.6883 13.912 26.3733 9.92773 25.6533 8.66805C25.575 8.53182 25.48 8.36364 25 8.36364H23.735C23.4767 8.36364 23.2667 8.55536 23.2483 8.811C23.1783 9.736 22.3767 10.4188 21.46 10.36C20.5417 10.2893 19.855 9.48205 19.925 8.55536C20.075 6.56241 21.7483 5 23.735 5H25C26.5533 5 27.81 5.70636 28.5417 6.98959C29.8967 9.366 29.1633 13.3233 27.6967 16.7727H34.9933C37.7533 16.7727 40 19.0398 40 21.8249V27.6205C40 28.532 39.755 29.425 39.29 30.2054L35.725 36.1977C34.8317 37.7013 33.1983 38.6364 31.46 38.6364ZM16.6667 20.1364L16.2367 20.0792C15.3467 19.8387 14.8183 18.9187 15.0567 18.0206C15.7433 15.4256 17.0133 13.7841 18.0333 12.4673C19.06 11.1403 19.8017 10.1834 19.925 8.55704C19.995 7.63036 20.81 6.93914 21.7133 7.00809C22.6317 7.07873 23.3183 7.886 23.25 8.81268C23.05 11.4548 21.835 13.0223 20.6617 14.5393C19.6983 15.7821 18.7883 16.956 18.2783 18.8885C18.0783 19.6402 17.4033 20.1364 16.6667 20.1364V20.1364Z" fill="#999999"/>
<path d="M6.66667 36.9547C7.58714 36.9547 8.33333 36.2017 8.33333 35.2729C8.33333 34.344 7.58714 33.5911 6.66667 33.5911C5.74619 33.5911 5 34.344 5 35.2729C5 36.2017 5.74619 36.9547 6.66667 36.9547Z" fill="#444444"/>
</svg>
