<svg width="20" height="20" viewBox="0 0 20 20" fill="none" xmlns="http://www.w3.org/2000/svg">
<path d="M15.2685 13.9216L19.7211 18.3742C20.093 18.7461 20.093 19.3491 19.7211 19.7211C19.3491 20.093 18.7461 20.093 18.3742 19.7211L13.9216 15.2685C12.4553 16.4415 10.5953 17.1429 8.57143 17.1429C3.83756 17.1429 0 13.3053 0 8.57143C0 3.83756 3.83756 0 8.57143 0C13.3053 0 17.1429 3.83756 17.1429 8.57143C17.1429 10.5953 16.4415 12.4553 15.2685 13.9216ZM8.57143 15.2381C12.2533 15.2381 15.2381 12.2533 15.2381 8.57143C15.2381 4.88953 12.2533 1.90476 8.57143 1.90476C4.88953 1.90476 1.90476 4.88953 1.90476 8.57143C1.90476 12.2533 4.88953 15.2381 8.57143 15.2381Z" fill="#444444"/>
</svg>
