<?xml version="1.0" standalone="no"?>
<!DOCTYPE svg PUBLIC "-//W3C//DTD SVG 1.1//EN" "http://www.w3.org/Graphics/SVG/1.1/DTD/svg11.dtd" >
<svg xmlns="http://www.w3.org/2000/svg">
<metadata>Generated by IcoMoon</metadata>
<defs>
<font id="UncannyLearnDashGroups" horiz-adv-x="1024">
<font-face units-per-em="1024" ascent="960" descent="-64" />
<missing-glyph horiz-adv-x="1024" />
<glyph unicode="&#x20;" horiz-adv-x="512" d="" />
<glyph unicode="&#xe900;" glyph-name="angle-down" horiz-adv-x="640" d="M303 264.4l-296 293.6c-9.4 9.4-9.4 24.6 0 34l39.6 39.6c9.4 9.4 24.6 9.4 34 0l239.4-237 239.4 237c9.4 9.4 24.6 9.4 34 0l39.6-39.6c9.4-9.4 9.4-24.6 0-34l-296-293.6c-9.4-9.4-24.6-9.4-34 0z" />
<glyph unicode="&#xe901;" glyph-name="angle-left" horiz-adv-x="384" d="M8.4 465l293.6 296c9.4 9.4 24.6 9.4 34 0l39.6-39.6c9.4-9.4 9.4-24.6 0-34l-237-239.4 237-239.4c9.4-9.4 9.4-24.6 0-34l-39.6-39.6c-9.4-9.4-24.6-9.4-34 0l-293.6 296c-9.4 9.4-9.4 24.6 0 34z" />
<glyph unicode="&#xe902;" glyph-name="angle-right" horiz-adv-x="384" d="M375.6 431l-293.6-296c-9.4-9.4-24.6-9.4-34 0l-39.6 39.6c-9.4 9.4-9.4 24.6 0 34l237 239.4-237 239.4c-9.4 9.4-9.4 24.6 0 34l39.6 39.6c9.4 9.4 24.6 9.4 34 0l293.6-296c9.4-9.4 9.4-24.6 0-34z" />
<glyph unicode="&#xe903;" glyph-name="angle-up" horiz-adv-x="640" d="M337 631.6l296-293.6c9.4-9.4 9.4-24.6 0-34l-39.6-39.6c-9.4-9.4-24.6-9.4-34 0l-239.4 237-239.4-237c-9.4-9.4-24.6-9.4-34 0l-39.6 39.6c-9.4 9.4-9.4 24.6 0 34l296 293.6c9.4 9.4 24.6 9.4 34 0z" />
<glyph unicode="&#xe904;" glyph-name="check" d="M871.696 793.068c9.373 9.371 24.568 9.371 33.941 0l56.566-56.568c9.373-9.373 9.373-24.57 0-33.941l-599.624-599.626c-9.375-9.371-24.57-9.371-33.941 0l-266.842 266.842c-9.373 9.375-9.373 24.57 0 33.943l56.566 56.566c9.375 9.373 24.57 9.373 33.943 0l193.303-193.303z" />
<glyph unicode="&#xe905;" glyph-name="lock" horiz-adv-x="896" d="M800 576c53 0 96-43 96-96v-448c0-53-43-96-96-96h-704c-53 0-96 43-96 96v448c0 53 43 96 96 96h64v96c0 159 129.6 288.4 288.8 288s287.2-131.6 287.2-290.8v-93.199h64zM256 672v-96h384v96c0 105.801-86.199 192-192 192s-192-86.199-192-192zM800 32v448h-704v-448h704z" />
<glyph unicode="&#xe906;" glyph-name="times" horiz-adv-x="640" d="M415.2 448l215.46-215.42c12.459-12.48 12.459-32.699 0-45.16l-50.061-50.061c-12.48-12.459-32.699-12.459-45.16 0l-215.44 215.442-215.42-215.46c-12.48-12.459-32.699-12.459-45.16 0l-50.061 50.061c-12.459 12.48-12.459 32.699 0 45.16l215.442 215.44-215.442 215.44c-12.459 12.48-12.459 32.701 0 45.16l50.041 50.041c12.48 12.459 32.699 12.459 45.16 0l215.44-215.442 215.42 215.46c12.48 12.459 32.699 12.459 45.16 0l50.061-50.061c12.459-12.48 12.459-32.699 0-45.16z" />
<glyph unicode="&#xe907;" glyph-name="spinner-third" d="M920.232 212.309l-41.646 24.043c-11.082 6.398-15.080 20.318-9.326 31.748 60.273 119.771 56.686 263.304-10.771 379.892-67.283 116.787-189.793 191.666-323.654 199.352-12.777 0.734-22.834 11.154-22.834 23.953v48.086c0 13.807 11.615 24.674 25.406 23.963 167.111-8.611 320.326-101.729 404.22-247.354 84.125-145.393 88.156-324.632 12.061-473.664-6.279-12.297-21.5-16.922-33.455-10.020z" />
<glyph unicode="&#xe908;" glyph-name="download" horiz-adv-x="1152" d="M1056 384c53 0 96-43 96-96v-256c0-53-43-96-96-96h-960c-53 0-96 43-96 96v256c0 53 43 96 96 96h184.6l-92.199 92.199c-60.6 60.4-17.4 163.801 67.799 163.801h128v224c0 53 43 96 96 96h192c53 0 96-43 96-96v-224h128c85.4 0 128-103.6 67.801-163.801l-92.199-92.199h184.199zM256 544l320-320 320 320h-224v320h-192v-320h-224zM1056 32v256h-280.4l-131.799-131.801c-37.602-37.398-98.201-37.6-135.801 0l-131.801 131.801h-280.2v-256h960zM880 160c0 26.6 21.4 48 48 48s48-21.4 48-48-21.4-48-48-48-48 21.4-48 48z" />
<glyph unicode="&#xe909;" glyph-name="print" d="M800 432c26.5 0 48-21.48 48-48 0-26.5-21.5-48-48-48s-48 21.5-48 48c0 26.52 21.5 48 48 48zM864 608c88.359 0 160-71.641 160-160v-256c0-17.68-14.32-32-32-32h-128v-192c0-17.68-14.32-32-32-32h-640c-17.68 0-32 14.32-32 32v192h-128c-17.68 0-32 14.32-32 32v256c0 88.359 71.641 160 160 160v288c0 35.34 27.279 64 60.961 64h443.28c25.459 0 49.879-10.119 67.879-28.119l103.762-103.762c18-18 28.119-42.42 28.119-67.879v-152.24zM256 864v-256h512v128h-96c-17.68 0-32 14.32-32 32v96h-384zM768 32v128h-512v-128h512zM928 256v192c0 35.279-28.721 64-64 64h-704c-35.279 0-64-28.721-64-64v-192h832z" />
<glyph unicode="&#xe90a;" glyph-name="info" d="M448 656c0 26.4 21.6 48 48 48h32c26.4 0 48-21.6 48-48v-32c0-26.4-21.6-48-48-48h-32c-26.4 0-48 21.6-48 48v32zM640 192h-256v64h64v192h-64v64h192v-256h64zM512 960c-282.77 0-512-229.23-512-512s229.23-512 512-512 512 229.23 512 512-229.23 512-512 512zM512 32c-229.75 0-416 186.25-416 416s186.25 416 416 416 416-186.25 416-416-186.25-416-416-416z" />
<glyph unicode="&#xe910;" glyph-name="pencil" d="M983.218 812.75c54.418-54.416 53.916-139.512 1.256-192.174l-630.652-634.756-297.99-49.164c-32.438-5.348-60.523 22.744-55.174 55.174l49.162 297.992 634.756 630.608c52.768 52.764 138.164 52.756 190.92-0.002zM241.288 356h82.713v-96h96v-82.711l338.308 340.52-176.502 176.502zM164.264 43.736l147.172 24.281 36.564 36.803v83.18h-96v96h-83.182l-36.801-36.564-24.279-147.174zM922.234 682.802c18.621 18.623 18.5 47.967-1.256 67.721l-107.709 107.709c-18.516 18.516-48.178 18.289-66.471-0.002l-0.102-0.1-0.1-0.102-96.688-96.059 176.061-176.061 96.162 96.789z" />
<glyph unicode="&#xe911;" glyph-name="file-contract" horiz-adv-x="768" d="M393.32 233.34c39.5 32.34 108.119 19.381 131.98-28.32 4.080-8.24 11.76-13 20.318-13h30.381c17.68 0 32-14.32 32-32s-14.32-32-32-32h-30.4c-32.859 0-62.48 18.281-77.24 47.68-5.879 11.881-16.199 13.061-20.379 13.061s-14.5-1.199-20.061-12.379l-15.32-30.66c-5.439-10.9-16.561-17.721-28.619-17.721-0.74 0-1.48 0.039-2.24 0.1-11.781 0.82-24.379 10.578-28.121 21.781l-33.619 100.959-21.24-63.779c-11.76-35.301-44.699-59.061-81.939-59.061h-24.82c-17.68 0-32 14.32-32 32s14.32 32 32 32h24.82c9.619 0 18.18 6.119 21.18 15.279l36.439 109.301c6.561 19.641 24.881 32.82 45.561 32.82s39-13.201 45.561-32.82zM739.66 764.040c18-18 28.34-42.6 28.34-67.979v-664.080c0-52.98-43.141-95.98-96.141-95.98h-575.878c-52.98 0-95.98 43-95.98 95.98v831.84c0 52.98 43 95.98 95.98 96.18h408.12c25.381 0 49.781-10.199 67.781-28.199zM511.9 856.020v-152.16h152.18zM672 31.98v575.9h-208.080c-26.6 0-48 21.379-48 47.979v207.96h-319.94v-831.84h576.020zM176 736c-8.84 0-16 7.16-16 16v32c0 8.84 7.16 16 16 16h160c8.84 0 16-7.16 16-16v-32c0-8.84-7.16-16-16-16h-160zM176 608c-8.84 0-16 7.16-16 16v32c0 8.84 7.16 16 16 16h160c8.84 0 16-7.16 16-16v-32c0-8.84-7.16-16-16-16h-160z" />
<glyph unicode="&#xe912;" glyph-name="file-download" horiz-adv-x="768" d="M432 487.86v-168.020h97.74c21.42 0 32.1-25.959 16.9-41.039l-144.621-143.541c-9.98-9.9-26.080-9.9-36.059 0l-144.621 143.541c-15.199 15.1-4.52 41.039 16.9 41.039h97.76v168.020c0 13.26 10.74 24 24 24h48c13.26 0 24-10.74 24-24zM739.66 764.040c18-18 28.34-42.6 28.34-67.979v-664.080c0-52.98-43.141-95.98-96.141-95.98h-575.878c-52.98 0-95.98 43-95.98 95.98v831.84c0 52.98 43 95.98 95.98 96.18h408.12c25.381 0 49.781-10.199 67.781-28.199zM511.9 856.020v-152.16h152.18zM672 31.98v575.9h-208.080c-26.6 0-48 21.379-48 47.979v207.96h-319.94v-831.84h576.020z" />
<glyph unicode="&#xe913;" glyph-name="file-export" horiz-adv-x="1152" d="M1144.58 401.88c9.9-9.98 9.9-26.080 0-36.061l-143.541-144.621c-15.1-15.199-41.039-4.52-41.039 16.9v97.76h-616c-13.26 0-24 10.74-24 24v48c0 13.26 10.74 24 24 24h328v176.021h-208.080c-26.6 0-48 21.379-48 47.979v207.96h-319.94v-831.84h576.020v207.878h96v-207.878c0-52.98-43.141-95.98-96.141-95.98h-575.878c-52.98 0-95.98 43-95.98 95.98v831.84c0 52.98 43 95.98 95.98 96.18h408.12c25.381 0 49.781-10.199 67.781-28.199l167.779-167.781c18-17.98 28.34-42.58 28.34-67.98v-264.2h192v97.76c0 21.42 25.939 32.1 41.039 16.9zM511.9 703.86h152.18l-152.18 152.16v-152.16z" />
<glyph unicode="&#xe914;" glyph-name="file-import" d="M995.66 764.040c18-18 28.34-42.6 28.34-67.979v-664.080c0-52.98-43.141-95.98-96.141-95.98h-575.878c-52.98 0-95.98 43-95.98 95.98v207.878h95.98v-207.878h576.020v575.9h-208.080c-26.6 0-48 21.379-48 47.979v207.96h-319.94v-431.98h224.020v97.76c0 21.42 25.939 32.1 41.039 16.9l143.541-144.619c9.9-9.98 9.9-26.080 0-36.061l-143.541-144.621c-15.1-15.199-41.039-4.52-41.039 16.9v97.76h-552c-13.26 0-24 10.74-24 24v48c0 13.26 10.74 24 24 24h232v431.96c0 52.98 43 95.98 95.98 96.18h408.12c25.381 0 49.781-10.199 67.781-28.199zM767.9 703.86h152.18l-152.18 152.16v-152.16z" />
<glyph unicode="&#xe915;" glyph-name="search" d="M1017 22.199c9.4-9.398 9.4-24.6 0-34l-45.199-45.199c-9.4-9.4-24.602-9.4-34 0l-242.8 242.8c-4.4 4.6-7 10.6-7 17v26.398c-73-63-168-101.199-272-101.199-229.8 0-416 186.199-416 416s186.199 416 416 416 416-186.199 416-416c0-104-38.199-199-101.199-272h26.398c6.4 0 12.4-2.4 17-7zM416 224c176.801 0 320 143.199 320 320s-143.199 320-320 320-320-143.199-320-320 143.199-320 320-320z" />
<glyph unicode="&#xe916;" glyph-name="search-plus" d="M624 568v-48c0-13.199-10.801-24-24-24h-136v-136c0-13.199-10.801-24-24-24h-48c-13.199 0-24 10.801-24 24v136h-136c-13.199 0-24 10.801-24 24v48c0 13.199 10.801 24 24 24h136v136c0 13.199 10.801 24 24 24h48c13.199 0 24-10.801 24-24v-136h136c13.199 0 24-10.801 24-24zM1017-11.801l-45.199-45.199c-9.4-9.4-24.602-9.4-34 0l-242.8 242.8c-4.6 4.6-7 10.6-7 17v26.398c-73-63-168-101.199-272-101.199-229.8 0-416 186.199-416 416s186.199 416 416 416 416-186.199 416-416c0-104-38.199-199-101.199-272h26.398c6.4 0 12.4-2.6 17-7l242.8-242.8c9.4-9.398 9.4-24.6 0-34zM736 544c0 176.801-143.199 320-320 320s-320-143.199-320-320 143.199-320 320-320 320 143.199 320 320z" />
<glyph unicode="&#xe917;" glyph-name="search-minus" d="M624 568v-48c0-13.199-10.801-24-24-24h-368c-13.199 0-24 10.801-24 24v48c0 13.199 10.801 24 24 24h368c13.199 0 24-10.801 24-24zM1017-11.801l-45.199-45.199c-9.4-9.4-24.602-9.4-34 0l-242.8 242.8c-4.6 4.6-7 10.6-7 17v26.398c-73-63-168-101.199-272-101.199-229.8 0-416 186.199-416 416s186.199 416 416 416 416-186.199 416-416c0-104-38.199-199-101.199-272h26.398c6.4 0 12.4-2.6 17-7l242.8-242.8c9.4-9.398 9.4-24.6 0-34zM736 544c0 176.801-143.199 320-320 320s-320-143.199-320-320 143.199-320 320-320 320 143.199 320 320z" />
<glyph unicode="&#xf099;" glyph-name="twitter" d="M918.74 656.572c0.65-9.096 0.65-18.195 0.65-27.291 0-277.44-211.166-597.116-597.118-597.116-118.904 0-229.36 34.438-322.274 94.211 16.895-1.947 33.137-2.598 50.68-2.598 98.109 0 188.426 33.137 260.548 89.664-92.264 1.951-169.584 62.377-196.225 145.545 12.996-1.949 25.99-3.248 39.637-3.248 18.842 0 37.686 2.6 55.227 7.146-96.162 19.494-168.285 103.959-168.285 205.968v2.598c27.938-15.594 60.428-25.34 94.861-26.637-56.527 37.686-93.561 102.010-93.561 174.781 0 38.984 10.393 74.721 28.588 105.908 103.309-127.35 258.6-210.516 432.728-219.614-3.248 15.594-5.197 31.836-5.197 48.080 0 115.654 93.564 209.868 209.868 209.868 60.428 0 115.004-25.34 153.342-66.273 47.43 9.096 92.91 26.639 133.197 50.68-15.596-48.732-48.732-89.666-92.264-115.654 42.234 4.547 83.168 16.244 120.852 32.486-28.584-41.582-64.322-78.617-105.256-108.506z" />
<glyph unicode="&#xf09a;" glyph-name="facebook" d="M1008 448.004c0-247.56-181.381-452.76-418.5-490v346.62h115.561l22 143.381h-137.561v93.1c0 39.221 19.221 77.461 80.82 77.461h62.561v122s-56.762 9.68-111.041 9.68c-113.34 0-187.34-68.66-187.34-192.961v-109.279h-126v-143.381h126v-346.62c-237.12 37.24-418.5 242.44-418.5 490 0 274 222 496 496 496s496-222 496-496z" />
<glyph unicode="&#xf0e1;" glyph-name="linkedin-in" d="M200.56 64.004h-185.76v598.2h185.76v-598.2zM107.58 743.804c-59.4 0-107.58 49.199-107.58 108.6 0 59.383 48.195 107.58 107.58 107.58s107.58-48.197 107.58-107.58c0-59.4-48.199-108.6-107.58-108.6zM895.8 64.004h-185.361v291.2c0 69.4-1.4 158.4-96.58 158.4-96.58 0-111.379-75.4-111.379-153.4v-296.2h-185.561v598.2h178.16v-81.6h2.6c24.801 47 85.381 96.6 175.76 96.6 188 0 222.56-123.799 222.56-284.6v-328.6h-0.199z" />
</font>
</defs>
</svg>
