<?xml version="1.0" encoding="utf-8"?>
<!-- Generator: Adobe Illustrator 24.3.0, SVG Export Plug-In . SVG Version: 6.00 Build 0)  -->
<svg version="1.1" id="Layer_1" xmlns="http://www.w3.org/2000/svg" xmlns:xlink="http://www.w3.org/1999/xlink" x="0px" y="0px"
	 viewBox="0 0 512 512" style="enable-background:new 0 0 512 512;" xml:space="preserve">
<style type="text/css">
	.st0{fill:#FFFFFF;}
</style>
<g>
	<g>
		<path class="st0" d="M494.5,138.6L364,3c-1.9-1.9-4.4-3-7.1-3H162.5c-21.8,0-39.5,17.7-39.5,39.4v137.8H44.3
			c-16.3,0-29.5,13.2-29.5,29.5v147.7c0,16.3,13.2,29.5,29.5,29.5h78.8v88.6c0,21.7,17.7,39.4,39.5,39.4h295.2
			c21.8,0,39.5-17.7,39.5-39.4V145.4C497.2,142.8,496.2,140.4,494.5,138.6z M359.4,26.6l107.1,111.3H359.4V26.6z M44.3,364.3
			c-5.4,0-9.8-4.4-9.8-9.8V206.7c0-5.4,4.4-9.8,9.8-9.8h265.9c5.4,0,9.8,4.4,9.8,9.8v147.7c0,5.4-4.4,9.8-9.8,9.8H44.3z
			 M477.5,472.6c0,10.8-8.9,19.7-19.8,19.7H162.5c-10.9,0-19.8-8.8-19.8-19.7V384h167.4c16.3,0,29.5-13.2,29.5-29.5V206.7
			c0-16.3-13.2-29.5-29.5-29.5H142.8V39.4c0-10.9,8.9-19.8,19.8-19.8h177.2v128c0,5.4,4.4,9.8,9.8,9.8h128L477.5,472.6L477.5,472.6z
			"/>
	</g>
</g>
<g>
	<g>
		<path class="st0" d="M132.5,249.9c-3.3-4.2-7.3-7-12.2-8.3c-3.2-0.8-9.9-1.3-20.3-1.3H72.6v84.6h17.1V293h11.1
			c7.7,0,13.6-0.4,17.7-1.2c3-0.7,6-2,8.9-4c2.9-2,5.3-4.8,7.2-8.3s2.8-7.9,2.8-13.1C137.4,259.6,135.8,254.1,132.5,249.9z
			 M117.9,273.2c-1.3,1.9-3.1,3.3-5.3,4.2s-6.8,1.3-13.5,1.3h-9.3v-24h8.2c6.2,0,10.2,0.2,12.3,0.6c2.8,0.5,5.1,1.8,6.9,3.8
			c1.8,2,2.7,4.5,2.7,7.6C119.8,269.1,119.1,271.3,117.9,273.2z"/>
	</g>
</g>
<g>
	<g>
		<path class="st0" d="M219.5,263.5c-1.8-5.4-4.5-10-8.1-13.7s-7.8-6.3-12.8-7.8c-3.7-1.1-9.1-1.6-16.1-1.6h-31.2v84.6h32.1
			c6.3,0,11.3-0.6,15.1-1.8c5-1.6,9-3.9,12-6.8c3.9-3.8,6.9-8.8,9.1-14.9c1.7-5,2.6-11,2.6-18C222.2,275.5,221.3,268.9,219.5,263.5z
			 M202.9,298.2c-1.2,3.8-2.6,6.5-4.5,8.2c-1.8,1.7-4.1,2.8-6.9,3.5c-2.1,0.5-5.6,0.8-10.3,0.8h-12.8l0,0v-56h7.7
			c7,0,11.6,0.3,14,0.8c3.2,0.7,5.8,2,7.9,4c2.1,2,3.7,4.7,4.8,8.2c1.2,3.5,1.7,8.5,1.7,15.1C204.6,289.2,204,294.4,202.9,298.2z"/>
	</g>
</g>
<g>
	<g>
		<polygon class="st0" points="294.8,254.7 294.8,240.3 236.8,240.3 236.8,324.9 253.9,324.9 253.9,289 289.2,289 289.2,274.7 
			253.9,274.7 253.9,254.7 		"/>
	</g>
</g>
</svg>
