<?xml version="1.0" encoding="utf-8"?>
<!-- Generator: Adobe Illustrator 24.3.0, SVG Export Plug-In . SVG Version: 6.00 Build 0)  -->
<svg version="1.1" id="Capa_1" xmlns="http://www.w3.org/2000/svg" xmlns:xlink="http://www.w3.org/1999/xlink" x="0px" y="0px"
	 viewBox="0 0 50 49" style="enable-background:new 0 0 50 49;" xml:space="preserve">
<style type="text/css">
	.st0{fill:#278675;}
</style>
<g>
	<path class="st0" d="M4.7,4.4v3.5h2.1V5.4h2.5V3.3H5.8C5.2,3.3,4.7,3.8,4.7,4.4z"/>
	<path class="st0" d="M43,7.9h2.1V4.4c0-0.6-0.5-1.1-1.1-1.1h-3.5v2.1H43V7.9z"/>
	<path class="st0" d="M45.1,30.7v-3.5H43v2.5h-2.5v2.1H44C44.6,31.8,45.1,31.3,45.1,30.7z"/>
	<path class="st0" d="M6.8,27.2H4.7v3.5c0,0.6,0.5,1.1,1.1,1.1h3.5v-2.1H6.8V27.2z"/>
	<rect x="14.8" y="9.1" class="st0" width="20.2" height="2.1"/>
	<rect x="9.9" y="14" class="st0" width="30.1" height="2.1"/>
	<path class="st0" d="M48.7,0H1.1C0.5,0,0,0.5,0,1.1V34c0,0.6,0.5,1.1,1.1,1.1h14.6c0,0.2,0,0.3,0.1,0.5l-4.5,5.3
		c-0.2,0.2-0.3,0.5-0.2,0.8c0,0.3,0.2,0.5,0.4,0.7c0.1,0.1,0.3,0.2,0.4,0.2l4.9,1.2l2,4.6c0.2,0.4,0.6,0.6,1,0.6
		c0.1,0,0.3,0,0.4-0.1c0.2-0.1,0.3-0.2,0.4-0.3l4.4-5.2l4.4,5.2c0.4,0.5,1.1,0.5,1.5,0.1c0.1-0.1,0.2-0.2,0.3-0.4l2-4.6l4.9-1.2
		c0.6-0.1,0.9-0.7,0.8-1.3c0-0.2-0.1-0.3-0.2-0.4l-4.5-5.3c0-0.2,0.1-0.3,0.1-0.5h14.6c0.6,0,1.1-0.5,1.1-1.1V1.1
		C49.8,0.5,49.3,0,48.7,0z M20,45.9l-1.5-3.5c-0.1-0.3-0.4-0.5-0.7-0.6l-3.7-0.9l2.4-2.9c0.1,0.2,0.2,0.3,0.2,0.5
		c0.1,0.1,0.1,0.2,0.2,0.3c0.1,0.2,0.2,0.4,0.4,0.6c0.1,0.1,0.2,0.3,0.3,0.4c0.1,0.1,0.2,0.3,0.4,0.4c0.1,0.1,0.3,0.3,0.4,0.4
		c0.1,0.1,0.2,0.2,0.3,0.3l0.1,0.1c0.1,0.1,0.1,0.1,0.2,0.2c0.1,0.1,0.1,0.1,0.2,0.1l0.1,0.1c0,0,0.1,0,0.1,0.1l0.1,0.1l0.2,0.1
		c0.1,0.1,0.2,0.1,0.3,0.2c0.2,0.2,0.5,0.3,0.7,0.4c0.1,0,0.2,0.1,0.3,0.1c0.2,0.1,0.5,0.2,0.7,0.3l0.2,0.1c0.2,0.1,0.4,0.1,0.6,0.2
		L20,45.9z M36,41l-3.7,0.9c-0.3,0.1-0.6,0.3-0.7,0.6L30.1,46l-2.7-3c0.2-0.1,0.4-0.1,0.6-0.2l0.2-0.1c0.2-0.1,0.5-0.2,0.7-0.3H29
		c0.1,0,0.1-0.1,0.2-0.1c0.3-0.1,0.5-0.3,0.7-0.4c0.1-0.1,0.2-0.1,0.3-0.2l0.2-0.1c0.1,0,0.1-0.1,0.2-0.1c0,0,0.1,0,0.1-0.1l0.1-0.1
		c0.1,0,0.1-0.1,0.2-0.1c0.1,0,0.1-0.1,0.2-0.1l0.1-0.1c0.1-0.1,0.2-0.2,0.3-0.3s0.3-0.3,0.4-0.4c0.1-0.1,0.2-0.3,0.4-0.4
		c0.1-0.1,0.2-0.3,0.3-0.4c0.1-0.2,0.3-0.4,0.4-0.6c0.1-0.1,0.1-0.2,0.2-0.3c0.1-0.2,0.2-0.3,0.2-0.5L36,41z M47.6,32.9H34.2
		c-0.1-0.5-0.2-1.1-0.3-1.6L32,33.2c0,0.3,0.1,0.6,0.1,0.8c0,0.5-0.1,1.1-0.2,1.6v0.1c-0.1,0.4-0.2,0.7-0.3,1.1c0,0,0,0,0,0.1
		c-0.1,0.3-0.3,0.6-0.5,0.9c0,0,0,0.1-0.1,0.1c-0.2,0.3-0.4,0.6-0.6,0.8l-0.1,0.1l-0.1,0.1c-0.2,0.2-0.3,0.3-0.5,0.5
		c-0.1,0.1-0.3,0.3-0.4,0.4c-0.2,0.1-0.3,0.2-0.5,0.3c-0.1,0.1-0.3,0.2-0.5,0.3h-0.1c-0.1,0.1-0.2,0.1-0.4,0.2l-0.2,0.1
		c-0.1,0-0.2,0.1-0.3,0.1h-0.1c-0.1,0-0.2,0.1-0.2,0.1h-0.2c-0.1,0-0.3,0.1-0.4,0.1h-0.1c-0.4,0.1-0.7,0.1-1.1,0.1h-0.1
		c-0.2,0-0.4,0-0.6,0h-0.1c-0.4,0-0.7-0.1-1.1-0.1h-0.1c-0.1,0-0.3-0.1-0.5-0.1v-0.1c-0.1,0-0.2-0.1-0.3-0.1s-0.2-0.1-0.3-0.1
		c-0.1,0-0.1,0-0.2-0.1s-0.3-0.1-0.4-0.2h-0.1c-0.3-0.2-0.6-0.4-0.9-0.6c-0.2-0.1-0.3-0.3-0.5-0.4c-0.2-0.2-0.3-0.3-0.5-0.5
		l-0.1-0.1l-0.1-0.1c-0.2-0.3-0.4-0.5-0.6-0.8l-0.1-0.1c-0.2-0.3-0.3-0.6-0.4-0.9L18,36.9l0.2-0.2c-0.1-0.4-0.3-0.7-0.3-1v-0.1
		c-0.1-0.5-0.2-1-0.2-1.6c0-4,3.2-7.2,7.2-7.2c1.5,0,2.9,0.5,4.1,1.3l1.5-1.5c-1.8-1.4-4-2.1-6.4-1.8c-4.4,0.4-7.9,3.8-8.4,8.2H2.1
		V2.1h45.5V32.9z"/>
	<path class="st0" d="M21.6,31.7L20,33.3l3.9,3.9c0.3,0.3,0.6,0.4,0.9,0.4c0.3,0,0.7-0.1,0.9-0.4l9.2-9.2l-1.6-1.6l-8.4,8.4
		L21.6,31.7z"/>
</g>
</svg>
