<?xml version="1.0" encoding="UTF-8" standalone="no"?>
<!-- Created with Inkscape (http://www.inkscape.org/) -->

<svg
   width="30"
   height="30"
   viewBox="0 0 7.9374998 7.9375002"
   version="1.1"
   id="svg5"
   inkscape:version="1.1.1 (c3084ef, 2021-09-22)"
   sodipodi:docname="contact_icon.svg"
   xmlns:inkscape="http://www.inkscape.org/namespaces/inkscape"
   xmlns:sodipodi="http://sodipodi.sourceforge.net/DTD/sodipodi-0.dtd"
   xmlns="http://www.w3.org/2000/svg"
   xmlns:svg="http://www.w3.org/2000/svg">
  <sodipodi:namedview
     id="namedview7"
     pagecolor="#ffffff"
     bordercolor="#666666"
     borderopacity="1.0"
     inkscape:pageshadow="2"
     inkscape:pageopacity="0.0"
     inkscape:pagecheckerboard="0"
     inkscape:document-units="px"
     showgrid="false"
     units="px"
     inkscape:zoom="17.866667"
     inkscape:cx="23.031716"
     inkscape:cy="14.608209"
     inkscape:window-width="1312"
     inkscape:window-height="762"
     inkscape:window-x="0"
     inkscape:window-y="25"
     inkscape:window-maximized="0"
     inkscape:current-layer="g104" />
  <defs
     id="defs2" />
  <g
     inkscape:label="Layer 1"
     inkscape:groupmode="layer"
     id="layer1">
    <g
       id="g198" />
    <g
       id="g104">
      <path
         style="fill:#1a93d8;stroke:none;stroke-width:0.127729"
         d="m 0.26458333,1.190625 v 3.1931902 h 0.6386494 V 5.1501808 L 2.9469109,4.3838152 3.0781917,6.6058413 4.3519396,6.8106397 H 7.6729161 V 3.6174495 H 4.990589 V 1.190625 H 0.26458333 M 4.6073994,1.4460802 v 2.1713693 c -0.6503878,0 -1.3096273,-0.1253646 -1.6604885,0.5109105 L 1.2864224,4.6392704 0.52004313,4.12836 V 1.4460802 H 4.6073994 M 1.4377069,2.3477618 C 1.0442976,2.4196188 1.1416661,3.0275396 1.5367579,2.9740856 1.9511418,2.9180136 1.8499286,2.2724702 1.4377069,2.3477618 m 1.0356327,0.025033 C 2.0980819,2.5555988 2.3905576,3.1352523 2.7606424,2.9375172 3.1138539,2.7487996 2.8313534,2.1983958 2.4733396,2.3727951 M 3.6186807,2.3477621 C 3.2644091,2.4168591 3.3432184,3.026467 3.7127026,2.9740859 4.1183855,2.9165699 4.0215152,2.269193 3.6186807,2.3477621 M 1.669612,2.5956287 1.4141523,2.8510839 V 2.5956287 H 1.669612 m 0.8941092,0.042572 c 0.098786,0 0.020462,0.063596 -0.042572,0.042584 l 0.042572,-0.042584 m 1.149569,0 c 0.098786,0 0.020462,0.063596 -0.042572,0.042584 l 0.042572,-0.042584 M 7.0342671,3.8729051 C 5.7414109,5.6294276 5.0626159,5.1219275 3.5855603,4.0006324 L 7.0342671,3.8729047 M 3.4578304,4.12836 C 4.3855198,4.9417549 4.5659638,5.5304004 3.3301005,6.1720017 L 3.4578304,4.12836 m 3.9596267,0 V 6.2997293 L 6.140158,5.0224532 7.4174571,4.12836 M 4.8628592,5.2779084 c 0.434652,0.3472658 0.5853222,0.3433063 1.021839,0 h 0.1277299 l 1.149569,1.2772761 H 3.5855603 Z"
         id="path458" />
      <path
         style="fill:#000000;stroke-width:0.127729"
         id="path400"
         d="" />
    </g>
  </g>
</svg>
