<?xml version="1.0" encoding="UTF-8" standalone="no"?>
<!-- Created with Inkscape (http://www.inkscape.org/) -->

<svg
   width="70"
   height="70"
   viewBox="0 0 18.520834 18.520834"
   version="1.1"
   id="svg5"
   inkscape:version="1.1.1 (c3084ef, 2021-09-22)"
   sodipodi:docname="wisdmlabs_logo.svg"
   xmlns:inkscape="http://www.inkscape.org/namespaces/inkscape"
   xmlns:sodipodi="http://sodipodi.sourceforge.net/DTD/sodipodi-0.dtd"
   xmlns="http://www.w3.org/2000/svg"
   xmlns:svg="http://www.w3.org/2000/svg">
  <sodipodi:namedview
     id="namedview7"
     pagecolor="#ffffff"
     bordercolor="#666666"
     borderopacity="1.0"
     inkscape:pageshadow="2"
     inkscape:pageopacity="0.0"
     inkscape:pagecheckerboard="0"
     inkscape:document-units="px"
     showgrid="false"
     inkscape:zoom="1.0289025"
     inkscape:cx="11.176958"
     inkscape:cy="262.41553"
     inkscape:window-width="1312"
     inkscape:window-height="762"
     inkscape:window-x="0"
     inkscape:window-y="25"
     inkscape:window-maximized="0"
     inkscape:current-layer="layer1"
     units="px" />
  <defs
     id="defs2" />
  <g
     inkscape:label="Layer 1"
     inkscape:groupmode="layer"
     id="layer1">
    <g
       id="g356">
      <path
         d="m 0.26458334,14.712867 h 0.35237335 l 0.41415401,1.13295 c 0.027458,0.0749 0.050334,0.140448 0.068646,0.196626 0.018304,0.05618 0.034319,0.110028 0.048048,0.156834 0.034327,-0.119374 0.070933,-0.234086 0.1098308,-0.348773 0.00458,-0.01405 0.00914,-0.02341 0.011441,-0.02809 l 0.4416111,-1.198501 0.4644931,1.221905 c 0.022883,0.05851 0.043474,0.119374 0.061777,0.177909 0.020587,0.05851 0.036614,0.119375 0.054917,0.18024 0.00914,-0.04684 0.022887,-0.09597 0.041188,-0.152148 0.016016,-0.05618 0.038901,-0.121734 0.06636,-0.196626 l 0.411865,-1.142325 H 3.165952 L 2.3170478,17.044317 1.8159453,15.763878 c -0.022883,-0.05617 -0.041188,-0.112358 -0.05949,-0.163847 -0.018312,-0.05149 -0.034328,-0.102988 -0.048047,-0.149818 -0.016016,0.06086 -0.034328,0.11704 -0.050344,0.168534 -0.016016,0.05151 -0.034318,0.103012 -0.05263,0.152175 l -0.494237,1.273395 z"
         fill="#403f41"
         id="path9"
         style="stroke-width:0.266923" />
      <path
         d="m 3.3673051,16.954737 v -2.244823 h 0.3567301 v 2.244823 z"
         fill="#403f41"
         id="path11"
         style="stroke-width:0.266923" />
      <path
         d="m 4.1795874,16.507908 0.2837371,-0.135757 c 0.02744,0.100654 0.0755,0.17555 0.1487201,0.229398 0.07094,0.05149 0.1647401,0.07959 0.2768731,0.07959 0.1052411,0 0.1899111,-0.03041 0.2516721,-0.09128 0.06179,-0.06087 0.09383,-0.14045 0.09383,-0.241103 0,-0.131104 -0.1075291,-0.25048 -0.3203512,-0.353462 -0.02972,-0.01637 -0.05261,-0.02575 -0.06863,-0.03278 -0.2425461,-0.121729 -0.4027082,-0.229399 -0.4828022,-0.327723 -0.0801,-0.0983 -0.12126,-0.2177 -0.12126,-0.35815 0,-0.182569 0.06176,-0.330057 0.183046,-0.444741 0.1212601,-0.112358 0.2814231,-0.170893 0.4782252,-0.170893 0.1624531,0 0.2974421,0.03277 0.4072862,0.09597 0.109818,0.06322 0.1853351,0.154507 0.2265271,0.276235 l -0.2791601,0.147466 c -0.04348,-0.07021 -0.09154,-0.121734 -0.1441451,-0.154479 -0.05263,-0.03279 -0.112132,-0.04916 -0.1807841,-0.04916 -0.09609,0 -0.171605,0.02573 -0.2288141,0.07725 -0.05718,0.0515 -0.08464,0.119374 -0.08464,0.205971 0,0.135786 0.1235471,0.259849 0.3706702,0.37689 0.01831,0.0093 0.03433,0.01637 0.04577,0.02107 0.2173731,0.103012 0.3660941,0.201309 0.4461882,0.299637 0.0801,0.0983 0.12126,0.220029 0.12126,0.365164 0,0.213012 -0.06634,0.381547 -0.1967771,0.505609 -0.130413,0.124084 -0.3088841,0.187281 -0.5308342,0.187281 -0.1876231,0 -0.3409461,-0.04447 -0.4599182,-0.131104 -0.121285,-0.08894 -0.1990641,-0.215355 -0.2356791,-0.376879 z"
         fill="#403f41"
         id="path13"
         style="stroke-width:0.266923" />
      <path
         d="m 5.9597902,16.954737 v -2.244823 h 0.4805142 c 0.3134601,0 0.5331222,0.01634 0.6612732,0.04914 0.1281251,0.03278 0.2379681,0.08662 0.3340552,0.161524 0.125863,0.09832 0.22195,0.227069 0.2883141,0.381547 0.06636,0.154506 0.09837,0.332418 0.09837,0.531372 0,0.198979 -0.03201,0.376862 -0.09837,0.529037 -0.06637,0.154478 -0.1624511,0.280894 -0.2883141,0.381553 -0.09609,0.0749 -0.2059301,0.128745 -0.3271892,0.161518 -0.123575,0.03276 -0.3134871,0.04914 -0.5720512,0.04914 h -0.09609 z m 0.3569401,-0.3277 h 0.2997561 c 0.1647401,0 0.2883141,-0.01171 0.3706702,-0.03277 0.08239,-0.02341 0.153324,-0.06087 0.2150851,-0.112358 0.08239,-0.07257 0.14417,-0.163854 0.187623,-0.27155 0.04119,-0.107674 0.06179,-0.234061 0.06179,-0.376863 0,-0.142778 -0.0206,-0.269195 -0.06179,-0.376865 -0.04117,-0.107671 -0.102952,-0.198985 -0.187623,-0.271548 -0.06176,-0.05382 -0.1372781,-0.09127 -0.2219491,-0.112359 -0.08693,-0.02341 -0.2219511,-0.03278 -0.4049982,-0.03278 H 6.4471694 6.3190183 v 1.587094 z"
         fill="#403f41"
         id="path15"
         style="stroke-width:0.266923" />
      <path
         d="m 10.108159,15.847551 c -0.0046,-0.01637 -0.01144,-0.06555 -0.02059,-0.145132 -0.0091,-0.06555 -0.01602,-0.119375 -0.0206,-0.161524 -0.0091,0.0515 -0.0206,0.103013 -0.03891,0.152149 -0.01602,0.05151 -0.03661,0.103013 -0.06175,0.156835 L 9.3919676,17.046051 8.8176543,15.826476 c -0.02289,-0.04916 -0.04577,-0.0983 -0.06179,-0.145131 -0.01831,-0.0468 -0.03204,-0.09362 -0.04577,-0.14045 0,0.04684 -0.0046,0.09597 -0.01144,0.147491 -0.0069,0.0515 -0.01601,0.105318 -0.02976,0.161493 L 8.4332112,16.954768 H 8.10602 l 0.5194172,-2.338491 0.6475423,1.416195 c 0.0091,0.02341 0.02517,0.06087 0.04575,0.112358 0.0206,0.0515 0.04577,0.117048 0.07323,0.194298 0.02059,-0.06555 0.05492,-0.145133 0.0984,-0.245786 0.01143,-0.02575 0.0206,-0.04684 0.02745,-0.06087 l 0.6315245,-1.416194 0.530833,2.33849 h -0.331766 z"
         fill="#403f41"
         id="path17"
         style="stroke-width:0.266923" />
      <path
         d="m 10.897584,16.955034 v -2.244846 h 0.597196 v 1.720497 h 0.743656 v 0.524349 z"
         fill="#960000"
         id="path19"
         style="stroke-width:0.266923" />
      <path
         d="m 12.293358,16.955034 0.757387,-2.244846 h 0.750495 l 0.757386,2.244846 h -0.594935 l -0.109818,-0.402621 h -0.848896 l -0.114423,0.402621 z m 0.837455,-0.838021 h 0.594935 L 13.50151,15.377315 c -0.0069,-0.02341 -0.01601,-0.05851 -0.02745,-0.110028 -0.01144,-0.04913 -0.02745,-0.114683 -0.04577,-0.194268 -0.01374,0.05618 -0.02517,0.107672 -0.0389,0.156836 -0.01144,0.04916 -0.02517,0.0983 -0.03891,0.145132 z"
         fill="#960000"
         id="path21"
         style="stroke-width:0.266923" />
      <path
         d="m 14.679912,16.955034 v -2.244846 h 0.601773 c 0.247123,0 0.421044,0.0094 0.519419,0.02341 0.0984,0.01637 0.183048,0.04447 0.253988,0.08426 0.0801,0.04683 0.141854,0.107671 0.185334,0.184923 0.04348,0.07726 0.06408,0.16621 0.06408,0.266863 0,0.128746 -0.03204,0.2294 -0.09611,0.304297 -0.06406,0.07492 -0.164741,0.131104 -0.304307,0.170894 0.155585,0.01171 0.276844,0.06787 0.366092,0.168534 0.08696,0.100661 0.132703,0.231735 0.132703,0.400269 0,0.1194 -0.02514,0.224717 -0.0732,0.316026 -0.05034,0.09127 -0.121286,0.161523 -0.212796,0.210658 -0.07552,0.03979 -0.167028,0.07023 -0.276871,0.08662 -0.109844,0.01637 -0.290603,0.02573 -0.540014,0.02573 h -0.620091 z m 0.553743,-1.34596 h 0.118971 c 0.148748,0 0.249411,-0.01638 0.304334,-0.04915 0.05492,-0.03279 0.08236,-0.09131 0.08236,-0.173223 0,-0.08427 -0.02514,-0.145137 -0.07778,-0.177909 -0.05035,-0.03511 -0.151035,-0.05149 -0.299755,-0.05149 h -0.128122 z m 0,0.889492 h 0.210508 c 0.141857,0 0.242547,-0.01873 0.302019,-0.05382 0.0595,-0.03514 0.08924,-0.09597 0.08924,-0.182599 0,-0.09365 -0.02745,-0.15916 -0.08009,-0.196625 -0.0549,-0.03746 -0.153298,-0.05617 -0.299731,-0.05617 h -0.219662 v 0.48922 z"
         fill="#960000"
         id="path23"
         style="stroke-width:0.266923" />
      <path
         d="m 16.901673,16.231429 c 0.08925,0.102986 0.176181,0.180237 0.263141,0.231732 0.08696,0.05149 0.171606,0.07725 0.258566,0.07725 0.08007,0 0.146431,-0.02109 0.196777,-0.06555 0.05034,-0.04447 0.0778,-0.100655 0.0778,-0.166176 0,-0.07493 -0.02289,-0.131105 -0.06636,-0.173222 -0.04348,-0.03979 -0.144143,-0.08194 -0.302043,-0.124061 -0.215086,-0.05854 -0.366094,-0.135788 -0.455342,-0.231761 -0.08922,-0.09597 -0.132702,-0.22471 -0.132702,-0.390916 0,-0.215348 0.07094,-0.38857 0.210508,-0.524332 0.139567,-0.135757 0.322614,-0.203666 0.546852,-0.203666 0.121287,0 0.23568,0.01637 0.343235,0.04916 0.107531,0.03278 0.21051,0.08426 0.308912,0.152148 l -0.187651,0.440082 c -0.06862,-0.05854 -0.137279,-0.102983 -0.20822,-0.133428 -0.07091,-0.03042 -0.141855,-0.04447 -0.212796,-0.04447 -0.07091,0 -0.130413,0.01874 -0.176181,0.05385 -0.04577,0.0351 -0.06636,0.07958 -0.06636,0.135761 0,0.05619 0.02059,0.100655 0.0595,0.135762 0.03891,0.03278 0.116709,0.06555 0.228815,0.09597 l 0.02745,0.0071 c 0.244834,0.06787 0.404997,0.14045 0.480515,0.222359 0.05263,0.05618 0.09151,0.121733 0.118972,0.198984 0.02745,0.07725 0.04119,0.163852 0.04119,0.257489 0,0.238745 -0.07552,0.430713 -0.228815,0.573492 -0.153297,0.145131 -0.356941,0.2177 -0.610929,0.2177 -0.153297,0 -0.29289,-0.02572 -0.416437,-0.07959 -0.125863,-0.05385 -0.247123,-0.135757 -0.361544,-0.250474 z"
         fill="#960000"
         id="path25"
         style="stroke-width:0.266923" />
      <path
         fill-rule="evenodd"
         clip-rule="evenodd"
         d="M 9.2958785,4.361158 5.1794938,8.6471858 9.2958785,12.855991 13.412262,8.6471858 Z m 0,2.595951 L 7.7170549,8.5863218 9.2958785,10.19446 10.8747,8.5863218 Z"
         fill="#403f41"
         id="path27"
         style="stroke-width:0.266923" />
      <path
         d="M 1.8254554,2.6088318 0.54461436,3.9203407 9.2995065,12.879718 10.580362,11.568211 Z"
         fill="#403f41"
         id="path29"
         style="stroke-width:0.266923" />
      <path
         fill-rule="evenodd"
         clip-rule="evenodd"
         d="M 9.3073195,12.848944 18.059453,3.8999976 16.778098,2.5821192 8.0191,11.538092 Z"
         fill="#403f41"
         id="path31"
         style="stroke-width:0.266923" />
      <path
         fill-rule="evenodd"
         clip-rule="evenodd"
         d="m 9.3073195,0.79375003 c 0.8168585,0 1.4712675,0.67649687 1.4712675,1.50514377 0,0.835672 -0.654409,1.5051315 -1.4712675,1.5051315 -0.8099933,0 -1.4712666,-0.6694595 -1.4712666,-1.5051315 0.0023,-0.8286469 0.6635613,-1.50514377 1.4712666,-1.50514377 z"
         fill="#960000"
         id="path33"
         style="stroke-width:0.266923" />
    </g>
  </g>
</svg>
